<svg id="Layer_1" data-name="Layer 1" xmlns="http://www.w3.org/2000/svg" viewBox="0 0 302.08 188.76"><path d="M45.49,59.28c-1.72-.47-2.62-2.21-3.28-3.85a129.86,129.86,0,0,1-5.13-15.79.61.61,0,0,1-.33-.14,1.1,1.1,0,0,1-.26-1.2,38.31,38.31,0,0,1,2.7-7.54,2.35,2.35,0,0,1,1.05-1.24,2.23,2.23,0,0,1,.87-.2l.31,0a3.72,3.72,0,0,0,1.39-.7c.19-.13.38-.26.58-.38a6.23,6.23,0,0,1,7.94,1.46l-.78.61a5.31,5.31,0,0,0-6.64-1.22c-.19.11-.36.23-.54.35a4.43,4.43,0,0,1-1.78.87l-.39.05a1.35,1.35,0,0,0-.53.1,1.64,1.64,0,0,0-.58.77,37.86,37.86,0,0,0-2.57,7.12l.11.06a.64.64,0,0,1,.33.57s0,0,0,.06a127.37,127.37,0,0,0,5.19,16.06c.59,1.48,1.32,2.9,2.61,3.26Z" style="fill:#231f20"/><path d="M46.14,51.55l-1.1-2A24.42,24.42,0,0,1,42,36.76l1,0a23.39,23.39,0,0,0,2.15,10.72l.73-.05Z" style="fill:#231f20"/><path d="M48.31,64.29,47.46,64c-1.79-.68-2.12-2.86-2.22-4.45a168.94,168.94,0,0,1,.34-25l-.73,0a1,1,0,0,1,.51-.86,1,1,0,0,1,1-.06l.3.16,0,.33c-.46,4.93-.69,9.89-.7,14.85l1,0A65.1,65.1,0,0,0,48.13,63.4ZM46,55c0,1.5.12,3,.21,4.49a6.22,6.22,0,0,0,.65,2.75A65,65,0,0,1,46,55Z" style="fill:#231f20"/><path d="M56.7,29.38a1.68,1.68,0,0,1-.5-.07c-1.36-.42-2.1-1.85-2.2-4.23-.19-4.61,0-10.43,3.47-14.46l.76.65C55,15,54.82,20.61,55,25c.08,1.92.58,3,1.49,3.32a.5.5,0,0,0,.41,0s0-.12-.16-.45L56,26.49l-.12-.07a.81.81,0,0,1-.32-1l.24-.43.66.29.27.5a14.31,14.31,0,0,0,8.47,1.19,30.57,30.57,0,0,0,5.56-1.39l-.31-.11-2.19-.9,4.48-.12v.35a3.49,3.49,0,0,0,.43-.07l1-.35.4.91a4.37,4.37,0,0,1-1.06.4,39.34,39.34,0,0,1-8.13,2.27,16.24,16.24,0,0,1-7.8-.72l.11.2a1.51,1.51,0,0,1,.19,1.35A1.16,1.16,0,0,1,56.7,29.38Z" style="fill:#231f20"/><path d="M89.92,29.76c-.4,0-.77,0-1.11,0a30,30,0,0,1-18.81-8c-.9-.85-1.21-1.65-.9-2.38l.92.38c-.17.4.34,1,.66,1.27a29,29,0,0,0,18.18,7.75,12.68,12.68,0,0,0,4.77-.53c-1.81-.52-3.66-1-5.51-1.31l.19-1a62.84,62.84,0,0,1,6.88,1.71l1.08.33-1,.58A10.65,10.65,0,0,1,89.92,29.76Z" style="fill:#231f20"/><path d="M117.32,34.44l-9.72-6.75a16.11,16.11,0,0,1,.93,1.35l.48.76h-1c-7,0-13.58-2.71-20-5.34-2-.83-4.12-1.69-6.19-2.45-.55-.2-1.17-.38-1.53-.11l-.59-.81a2.6,2.6,0,0,1,2.47,0c2.08.76,4.18,1.63,6.22,2.46,6,2.49,12.28,5.06,18.77,5.26a17.64,17.64,0,0,0-7.24-5.93l.37-.93a17,17,0,0,1,4.1,2.31l13.49,9.37Z" style="fill:#231f20"/><path d="M128.13,40.61l.7,1.59c-11-6.58-18.14-13.26-22.34-21a1.36,1.36,0,0,1,.06-1.43.7.7,0,0,1,.81-.19l-.36.93a.29.29,0,0,0,.33-.12.5.5,0,0,0,0,.33c3.95,7.31,10.57,13.66,20.76,19.91l.7,1.59Z" style="fill:#231f20"/><path d="M61.85,14.51l-1,0C61,9.41,67.11,7,69,6.42c10.89-3.52,22.68-1.89,32.87-.1l-.17,1C91.61,5.53,80,3.92,69.3,7.37,67.57,7.93,61.94,10.09,61.85,14.51Z" style="fill:#231f20"/><path d="M122.78,14.45a20.84,20.84,0,0,0-12.52-9.59,29.07,29.07,0,0,0-16.07.29A6.66,6.66,0,0,0,91,6.82l-.75-.66a7.48,7.48,0,0,1,3.67-2,30,30,0,0,1,16.63-.29A21.84,21.84,0,0,1,123.66,14Z" style="fill:#231f20"/><path d="M139.5,39.09c-2.78-2.74-4.34-6.37-5.86-9.88a37,37,0,0,0-4.3-8.1c-3.08-4-7.81-6.54-12-8.8l.47-.88c4.26,2.31,9.08,4.92,12.29,9.07a37.71,37.71,0,0,1,4.43,8.31c1.54,3.58,3,7,5.65,9.57Z" style="fill:#231f20"/><path d="M138.84,63.38a44.26,44.26,0,0,1-.11-12.59c.14-1,.32-2.12.5-3.18.65-3.86,1.32-7.85.11-11.5l.95-.31c1.29,3.88.6,8-.07,12-.18,1.06-.36,2.11-.5,3.16a43.33,43.33,0,0,0,.11,12.3Z" style="fill:#231f20"/><path d="M123.41,41.38a94.58,94.58,0,0,1-10.06-11.74,13.5,13.5,0,0,1-2.62-5.16l1-.19a12.66,12.66,0,0,0,2.44,4.77,94.94,94.94,0,0,0,10,11.61Z" style="fill:#231f20"/><path d="M135.32,54.68a1.12,1.12,0,0,1-.86-.44,117.54,117.54,0,0,1-11.22-18.89l.9-.43a116.26,116.26,0,0,0,10.72,18.16l.31-.24.78,1,0,.15a.62.62,0,0,1-.4.66A.73.73,0,0,1,135.32,54.68Z" style="fill:#231f20"/><path d="M135.39,54.75a2,2,0,0,1-1.09-1.54l1-.13a1,1,0,0,0,.54.77Z" style="fill:#231f20"/><path d="M44.67,69.63A64,64,0,0,1,42.5,58.86l1-.12a65,65,0,0,0,2.13,10.61Z" style="fill:#231f20"/><path d="M54.15,72.81l-.49,0a.63.63,0,0,1-.51-.55,11.59,11.59,0,0,0-2.46-.87A78.59,78.59,0,0,0,43,69.73l.15-1c2.63.42,5.26,1,7.83,1.65a11.37,11.37,0,0,1,3,1.09.77.77,0,0,1,.42,1Z" style="fill:#231f20"/><path d="M56.46,76.67l-.19-.19v0a66.93,66.93,0,0,1-9.77-3.6l.42-.91a66.06,66.06,0,0,0,9.62,3.55l.8.22Z" style="fill:#231f20"/><path d="M57,76.66h0a1.29,1.29,0,0,1-1-.6,7.92,7.92,0,0,1-1.34-6.17l.82.16a.93.93,0,0,1,.29,0,1.12,1.12,0,0,1,.93.77A15.87,15.87,0,0,1,58,75a1.79,1.79,0,0,1-.3,1.37A.91.91,0,0,1,57,76.66ZM55.5,71.43a7,7,0,0,0,1.31,4,.81.81,0,0,0,.19.2s0-.27,0-.54a14.7,14.7,0,0,0-1.19-3.94.79.79,0,0,0-.13-.21c.18,0,0,.07,0,0s0,.07,0,0-.11-.19-.24-.2v.33C55.36,71.12,55.55,71.44,55.5,71.43Z" style="fill:#231f20"/><path d="M64.59,80.41l-.44-.31a2.81,2.81,0,0,1-1-1.9A3,3,0,0,0,62.71,77c-.57-.68-1.73-.45-2.86-.23l-.39.07a3.53,3.53,0,0,1-3-.78A1.62,1.62,0,0,1,56,74.55l1,.2a.6.6,0,0,0,.18.58,2.61,2.61,0,0,0,2.11.5l.38-.07c1.28-.25,2.87-.57,3.82.57A3.83,3.83,0,0,1,64.14,78c0,.21.09.42.15.6a7.86,7.86,0,0,0,0-1.54,6.5,6.5,0,0,1,.19-2.44c.69-2.1,3-2.93,4.75-3.37a44.08,44.08,0,0,1,17-1c1.7.24,3.79.73,4.83,2.37a6.76,6.76,0,0,1,.5,1,5.09,5.09,0,0,0,.54,1,1.26,1.26,0,0,0,.88.48.47.47,0,0,0,.38-.13c.21-.23.17-.69.09-1.16a10.77,10.77,0,0,0-1.19-4,3.25,3.25,0,0,0-3.12-1.65l-.2-1a4.2,4.2,0,0,1,4.16,2.1,11.24,11.24,0,0,1,1.34,4.32,2.31,2.31,0,0,1-.35,2,1.41,1.41,0,0,1-1.15.46,2.31,2.31,0,0,1-1.63-.87A5.84,5.84,0,0,1,90.66,74a5.86,5.86,0,0,0-.42-.87c-.83-1.3-2.64-1.71-4.13-1.92a43.06,43.06,0,0,0-16.61,1c-2.36.61-3.64,1.47-4,2.71A5.67,5.67,0,0,0,65.31,77a5.1,5.1,0,0,1-.44,3Z" style="fill:#231f20"/><path d="M58.4,72l-.4-.92a53.11,53.11,0,0,1,11.41-3.47,28.75,28.75,0,0,1,6.23-.57c.67,0,1.33.08,2,.14a25.6,25.6,0,0,0,2.63.15c.56,0,1.13,0,1.71-.08,2-.12,4.1-.26,5.83.88l-.55.84C85.8,68,84,68.16,82,68.28c-.59,0-1.18.07-1.76.08-.91,0-1.84-.08-2.72-.15-.65-.06-1.3-.12-1.94-.14a28.06,28.06,0,0,0-6,.55A52,52,0,0,0,58.4,72Z" style="fill:#231f20"/><path d="M68.85,74.37q-.7.1-1.41.15l-.1-.74.06-.36,4.06-.91.19-.14A2.84,2.84,0,0,1,73,71.88l.47-.12a9,9,0,0,0,.85-.5l.22.34.56,0,2.29.47-1.87.43.27.09-2.39.54.06.11,0,0,4.71-.11-3.42,1.06a14.5,14.5,0,0,1-5.47.63l0-.37" style="fill:#231f20"/><path d="M70.58,75.43l-.22-1,.69-.16-.37-.82a11.69,11.69,0,0,1,2.89-1.08l3.51-1.31.35.94-.29.1h.08L79,72.3l-1.65.79A31,31,0,0,1,70.58,75.43Zm3.28-2.07L72,74c.83-.23,1.65-.5,2.46-.8C74.28,73.27,74.07,73.31,73.86,73.36Z" style="fill:#231f20"/><path d="M79.18,75.9a2.35,2.35,0,0,1-1.25-.36,2.49,2.49,0,0,1-.76-3.31l.85.53a1.42,1.42,0,0,0,2.39,1.52l.84.54A2.48,2.48,0,0,1,79.18,75.9Z" style="fill:#231f20"/><path d="M80.3,76.77a3.93,3.93,0,0,1-2.21-.68l.56-.82a2.6,2.6,0,0,0,3.23-.13,1.75,1.75,0,0,0,.32-1.66,1.31,1.31,0,0,0-.87-.94l.24-1a2.28,2.28,0,0,1,1.59,1.62,2.74,2.74,0,0,1-.55,2.63A3.11,3.11,0,0,1,80.3,76.77Z" style="fill:#231f20"/><path d="M80.19,75.74A2.42,2.42,0,0,1,78.44,75a2.39,2.39,0,0,1-.38-2.67l.89.45a1.42,1.42,0,0,0,.22,1.54,1.39,1.39,0,0,0,1.51.33l.38.93A2.4,2.4,0,0,1,80.19,75.74Z" style="fill:#231f20"/><path d="M80.45,75.1a3.94,3.94,0,0,1-.35-2.59l1,.2a3,3,0,0,0,.26,1.93Z" style="fill:#231f20"/><path d="M87.89,75.36a5.76,5.76,0,0,0-3.46-2.51l.24-1a6.74,6.74,0,0,1,4.07,3Z" style="fill:#231f20"/><path d="M89,76.82a3.3,3.3,0,0,1-1.57-.4l.48-.88a2.3,2.3,0,0,0,2.09,0l.44.89A3.17,3.17,0,0,1,89,76.82Z" style="fill:#231f20"/><rect x="82.84" y="76.86" width="4.59" height="1" transform="matrix(0.98, -0.18, 0.18, 0.98, -12.63, 16.75)" style="fill:#231f20"/><path d="M82.69,80.42l-.22-1a12.18,12.18,0,0,0,5.7-3l.68.73A13.21,13.21,0,0,1,82.69,80.42Z" style="fill:#231f20"/><path d="M81.29,93.16a25.87,25.87,0,0,1-4.38-.48c-2.64-.45-5.65-1-8-2.66C65.45,87.6,64,83.44,62.74,79l1-.28C64.93,83,66.29,87,69.44,89.2c2.22,1.58,5.1,2.06,7.64,2.5,2.32.39,5,.84,7.28,0a11.56,11.56,0,0,0,4.81-4.07c1.94-2.56,4.07-6.43,3.26-10.35l1-.2C94.3,81.33,92,85.48,90,88.2a12.51,12.51,0,0,1-5.27,4.41A9.71,9.71,0,0,1,81.29,93.16Z" style="fill:#231f20"/><path d="M93.83,76.18l.37-1.53a4,4,0,0,1,3.66-2.78,10.67,10.67,0,0,1,4.39.84l.58.2-.32.53a1.82,1.82,0,0,1-2.34.67l.45-.88A7.41,7.41,0,0,0,98,72.86a3.71,3.71,0,0,0-2.1.9l.32.36Z" style="fill:#231f20"/><path d="M106,77l-1.64-.28c-.7-.11-.88-.79-1-1.23,0-.06,0-.11,0-.17v0a1.45,1.45,0,0,0-.1-.25c-.3-.63-1.53-.42-2-.3l-5.74,1.31.47-1.64,1,.28h0l4.1-.94c2-.47,2.86.2,3.17.84,0,0,0,.11.08.17h0a1.88,1.88,0,0,0,.56,1.11Z" style="fill:#231f20"/><path d="M130.25,81.41h-.12c-1-.1-1.27-1.25-1.42-2l0-.17c-.51-2.51-3.71-3.59-6.08-4.18l-5-1.25a15.74,15.74,0,0,0-5.12-.69,4.94,4.94,0,0,0-4,2.38,7.94,7.94,0,0,0-.33.78,3.5,3.5,0,0,1-1.51,2.11A2.59,2.59,0,0,1,103.41,77a6.21,6.21,0,0,1-.42-3.33l1,.07a5.36,5.36,0,0,0,.31,2.8,1.61,1.61,0,0,0,1.92.9,2.69,2.69,0,0,0,1-1.57,7.58,7.58,0,0,1,.37-.87,5.87,5.87,0,0,1,4.79-2.92,16.58,16.58,0,0,1,5.46.71l5,1.25c2.63.66,6.19,1.89,6.81,5l0,.18c.1.5.23,1.18.53,1.2.14,0,.35-.12.57-.37s.41-.51.6-.77a7.19,7.19,0,0,1,1.22-1.38,2.42,2.42,0,0,1,3.15-.11l-.7.71a1.47,1.47,0,0,0-1.82.18,6.34,6.34,0,0,0-1,1.19,10.59,10.59,0,0,1-.66.84A1.83,1.83,0,0,1,130.25,81.41Z" style="fill:#231f20"/><path d="M135.25,78.38l-.27-.12a1.82,1.82,0,0,1-.94-1l.93-.38a.74.74,0,0,0,.14.22,1.42,1.42,0,0,0,.21-.64,2.19,2.19,0,0,0-.52-1.58,6,6,0,0,0-2.89-1.48A129.55,129.55,0,0,0,117,70a21,21,0,0,0-6-.42A7.56,7.56,0,0,0,105.92,72a11.61,11.61,0,0,0-.9,1.31c-.25.4-.5.79-.78,1.16l-.79-.6c.26-.35.49-.72.72-1.09a12.87,12.87,0,0,1,1-1.42,8.56,8.56,0,0,1,5.74-2.82,22.65,22.65,0,0,1,6.27.44,131.47,131.47,0,0,1,15,3.48,6.75,6.75,0,0,1,3.37,1.78,3.22,3.22,0,0,1,.75,2.33,2.21,2.21,0,0,1-.83,1.59Z" style="fill:#231f20"/><path d="M113.32,77.63a2.64,2.64,0,0,1-2.44-2.06,3.64,3.64,0,0,1,.87-3.07l.76.65a2.59,2.59,0,0,0-.65,2.2,1.61,1.61,0,0,0,1.5,1.28,1.13,1.13,0,0,0,.87-.52.91.91,0,0,0,.14-.78l.95-.33a1.88,1.88,0,0,1-.27,1.67,2.14,2.14,0,0,1-1.64,1Z" style="fill:#231f20"/><path d="M114.37,77.78a1.78,1.78,0,0,1-1.65-.94l.89-.45a.84.84,0,0,0,.79.39,1.32,1.32,0,0,0,1.16-.68,2.36,2.36,0,0,0-.85-2.59l.65-.76a3.33,3.33,0,0,1,1.11,3.77,2.29,2.29,0,0,1-2.06,1.26Z" style="fill:#231f20"/><path d="M113.51,77.41l-.28-.26a2.57,2.57,0,0,1-.29-3.21l.08-.34.53.2a2,2,0,0,1,.28,3.42Z" style="fill:#231f20"/><path d="M113.94,78.11a5.5,5.5,0,0,1-3.77-1.47l.69-.72a4.5,4.5,0,0,0,4.62.91l.36.94A5.36,5.36,0,0,1,113.94,78.11Z" style="fill:#231f20"/><path d="M116.82,78.64l-.14-1,4.4-.59a5.59,5.59,0,0,1-1.46-1L117.32,74l2.79,1.23.19-.32,1.57.9a27.35,27.35,0,0,0,3.71,1.67l-.35.94c-.48-.17-1-.36-1.42-.56l-.45.48-.33-.25a3,3,0,0,0-1.65-.08Z" style="fill:#231f20"/><rect x="111.42" y="77.82" width="1" height="4.3" transform="translate(-4.56 153.13) rotate(-67.68)" style="fill:#231f20"/><path d="M106.46,89.23A23.7,23.7,0,0,1,105,78.78l1,.09a22.75,22.75,0,0,0,1.38,10Z" style="fill:#231f20"/><path d="M108.33,95l-1.39-3.63-.64-1.64.94-.36.63,1.64c.47,1.21.93,2.42,1.39,3.63Z" style="fill:#231f20"/><path d="M101.09,101.08a2,2,0,0,1-1.28-.5l.64-.77c.61.5,1.17.31,2.18-.71l.71.71A3.53,3.53,0,0,1,101.09,101.08Z" style="fill:#231f20"/><path d="M119.78,92.67a19.59,19.59,0,0,1-3.67-.46l-4.5-.87c-1.52-.29-3.21-.72-4.08-2.07l.84-.54c.66,1,2,1.36,3.42,1.63l4.51.86a12.59,12.59,0,0,0,5.08.28,8.09,8.09,0,0,0,4.55-3.31,25.15,25.15,0,0,0,2.69-5.33l.93.37a25.86,25.86,0,0,1-2.81,5.55,9.06,9.06,0,0,1-5.14,3.69A8,8,0,0,1,119.78,92.67Z" style="fill:#231f20"/><path d="M66.25,65.27a4.63,4.63,0,0,1-2-.55A10.62,10.62,0,0,1,60,60.85l.85-.53a9.7,9.7,0,0,0,3.87,3.51,3.14,3.14,0,0,0,1.69.43,1.2,1.2,0,0,0,1.07-.78l1,.22a2.17,2.17,0,0,1-2,1.56Z" style="fill:#231f20"/><path d="M67.74,62.9a5.82,5.82,0,0,1-4.83-2.57l.83-.55A4.85,4.85,0,0,0,68,61.89a14.93,14.93,0,0,0-1.74-2.22l-.17-1,.68.2a11.29,11.29,0,0,1,4.68,2.72l.43-.69A1,1,0,0,1,72.21,62a.92.92,0,0,1-1,.64l-.17,0L71,62.49a10.5,10.5,0,0,0-2.7-2,15.37,15.37,0,0,1,1,1.53l.33.59-.66.15A5.81,5.81,0,0,1,67.74,62.9Zm3.52-1.23s0,0,.08.06l0-.08a.17.17,0,0,0-.11,0Z" style="fill:#231f20"/><rect x="75.03" y="55.12" width="1" height="9.6" transform="translate(7.85 128.57) rotate(-83.83)" style="fill:#231f20"/><path d="M88,64.16l-1.91-.62.31-1,.65.22a1.66,1.66,0,0,0-.6-.73,5.4,5.4,0,0,0-1.83-.7L81,60.49l.24-1,3.56.88a6.26,6.26,0,0,1,2.18.85,2.43,2.43,0,0,1,1.08,2.36Z" style="fill:#231f20"/><path d="M79.75,63A8.89,8.89,0,0,1,74,60.91l.65-.76a7.83,7.83,0,0,0,7.19,1.53l.29,1A8.51,8.51,0,0,1,79.75,63Z" style="fill:#231f20"/><path d="M87.42,65.35a12.88,12.88,0,0,1-2.19-1.91l0,.3-.55-.15a9.33,9.33,0,0,1-3.72-2l.65-.76a8.33,8.33,0,0,0,2.79,1.59l.2-1.44.73.94A11.94,11.94,0,0,0,88,64.52Z" style="fill:#231f20"/><path d="M108.39,67.25a3,3,0,0,1-1.71-.54,2.88,2.88,0,0,1-1.31-2.26l1,0a2.05,2.05,0,0,0,2.56,1.75l.33.94A2.46,2.46,0,0,1,108.39,67.25Z" style="fill:#231f20"/><path d="M107.33,69.09a4.36,4.36,0,0,1-4-2.81l1-.34a3.35,3.35,0,0,0,3.41,2.14l.11,1A3.24,3.24,0,0,1,107.33,69.09Z" style="fill:#231f20"/><path d="M109.17,65.63a2.13,2.13,0,0,1-1.37-.52,2,2,0,0,1-.76-1.87l1,.16a1.07,1.07,0,0,0,.42.94,1,1,0,0,0,1,.24l.13,0a56.79,56.79,0,0,0,8.11-1.17l.22,1a59.67,59.67,0,0,1-8.19,1.2A2,2,0,0,1,109.17,65.63Z" style="fill:#231f20"/><path d="M125.38,68.45l-.13-2.87,1,0,0,.86a4.86,4.86,0,0,0,1-1.7,5,5,0,0,1-1.93-1.9l-.14-.25a1.28,1.28,0,0,0-1.39-.91l-2.65-.28a25.12,25.12,0,0,0-10.37,1.76l-.37-.93a26.14,26.14,0,0,1,10.81-1.83l2.68.29a2.77,2.77,0,0,1,1.41.43,2.64,2.64,0,0,1,.76,1l.13.23a4,4,0,0,0,1.27,1.35l.06-.4,2.08,1.44-.93.52a4.07,4.07,0,0,1-.5-.13,5.75,5.75,0,0,1-2,2.81Z" style="fill:#231f20"/><path d="M123.33,66.56l-.9-.42a7.82,7.82,0,0,0,.48-2.14l-2.71,2c-.66.48-1.1.36-1.36.17a1.14,1.14,0,0,1-.38-1,6.51,6.51,0,0,1,0-.77L118,65a1.34,1.34,0,0,1-.86.55.88.88,0,0,1-.81-.42.71.71,0,0,1,0-.78l.82.58a.29.29,0,0,0,0-.31.16.16,0,0,0-.15-.07.67.67,0,0,0,.2-.2l2.64-3.57.38.56a16.48,16.48,0,0,0-.81,3.86v.07l.15-.09L123.9,62l0,.94c0,.18,0,.36,0,.53l.85-1.45.86.51Q124.47,64.56,123.33,66.56Z" style="fill:#231f20"/><path d="M100,106.7a2.06,2.06,0,0,1-1.31-.47.9.9,0,0,1-.73-.7,12.24,12.24,0,0,1-.6-3.28l1,0a11.34,11.34,0,0,0,.49,2.77h.05a.64.64,0,0,1,.46.49,1,1,0,0,0,.87.2l.24,1A1.82,1.82,0,0,1,100,106.7Z" style="fill:#231f20"/><path d="M85.06,115.1h-.71A9.44,9.44,0,0,1,80.09,114l.47-.88a8.58,8.58,0,0,0,4.57,1l.07-.09a1.22,1.22,0,0,1,.85-.44l5.24-2.29,1.49-1.07a8.85,8.85,0,0,1,4.83-1.65H98l.13.34a1.17,1.17,0,0,0,.21.36l.14,0-.11,0a2.17,2.17,0,0,0,1.55.64,5,5,0,0,0,2.39-.84,2.49,2.49,0,0,1,1.23-.44h0a2.33,2.33,0,0,1,1.13.37,48.8,48.8,0,0,1,6.73,4.56l-.62.78a46.59,46.59,0,0,0-6.6-4.46,1.41,1.41,0,0,0-.64-.25h0a1.56,1.56,0,0,0-.7.29,6.11,6.11,0,0,1-2.91,1,3,3,0,0,1-2.5-1.23l-10.19,4.47.35.52-.69.17a9.28,9.28,0,0,1-1.81.25Z" style="fill:#231f20"/><path d="M99.8,114.47a3.87,3.87,0,0,1-2.13-.62l-1.1-.72-2.14,1.26.11-1A4.76,4.76,0,0,1,95,112a22,22,0,0,1-3.22,1.13l-.27-1a22,22,0,0,0,5.25-2.19l.23-.14.5.87-.21.12a3.8,3.8,0,0,0-1.39,1.61l1.13-.67a5.73,5.73,0,0,1,1.9-1.1l.41.9-1.4.83,3.05.88.23-.11.21-.13a4.68,4.68,0,0,1,.59-.3,3.6,3.6,0,0,1,1.71-.09l5.62.63-.68.73a1,1,0,0,1-.87.28.93.93,0,0,1-.49-.23l-3.69-.42a2.75,2.75,0,0,0-1.25,0h0l-1.17.59A3.87,3.87,0,0,1,99.8,114.47Z" style="fill:#231f20"/><path d="M103.51,119.47a20.64,20.64,0,0,1-2.73-.21l-5.31-.67h0l-1,.3a6.64,6.64,0,0,1-4.76-4.66l1-.26a5.76,5.76,0,0,0,2.53,3.32l7.73,1c2.31.3,4.89.48,6.48-1a9,9,0,0,0,.74-.85,7.72,7.72,0,0,1,.8-.93l.69.72a8.38,8.38,0,0,0-.71.82,8.36,8.36,0,0,1-.83,1A6.41,6.41,0,0,1,103.51,119.47Z" style="fill:#231f20"/><path d="M47,89.79h-.12l-.32,0,0-.08a.81.81,0,0,1-.27-1l-2.67-9.64A9.86,9.86,0,0,0,42.34,76c-.09-.14-.19-.26-.29-.39a5.87,5.87,0,0,1-.61-.92,3.16,3.16,0,0,1-.12-2.52l.1-.26.28-.05a2.51,2.51,0,0,1,2.78,1.75l-1,.26a1.49,1.49,0,0,0-1.35-1,2.14,2.14,0,0,0,.16,1.41,5.61,5.61,0,0,0,.51.76c.11.14.22.28.32.43a10.93,10.93,0,0,1,1.37,3.37l2.58,9.33.13,0a.81.81,0,0,1,.5,1A.82.82,0,0,1,47,89.79Zm-.06-.7H47L47,89Z" style="fill:#231f20"/><path d="M46,93.75a8.79,8.79,0,0,1,.62-4.67l.92.39a8,8,0,0,0-.62,3.44h0l0,.76Z" style="fill:#231f20"/><path d="M47.44,98.41l-.6-.42a8.81,8.81,0,0,1-2.63-2.87,2.89,2.89,0,0,1-.26-3,1.55,1.55,0,0,1,1.08-.7.8.8,0,0,1,.55-.13,1,1,0,0,1,.58.3,1.19,1.19,0,0,1,.62.86,7.15,7.15,0,0,1,.83,5.2Zm-2.75-4.75a3.63,3.63,0,0,0,.39,1,8,8,0,0,0,1.68,2,6.11,6.11,0,0,0-1.21-4.21h0a1,1,0,0,0,0,.16C45.38,93,45.21,93.53,44.69,93.66Z" style="fill:#231f20"/><rect x="48.51" y="90.79" width="1" height="7.94" transform="translate(-23.21 16.24) rotate(-15.26)" style="fill:#231f20"/><path d="M78,137.37A166.05,166.05,0,0,1,57.7,118.73a19.7,19.7,0,0,1-3-3.8A21.26,21.26,0,0,1,53,109.84l-3.65-14.3,1-.25,3.65,14.31a20.57,20.57,0,0,0,1.68,4.84,19.32,19.32,0,0,0,2.81,3.61,165.63,165.63,0,0,0,20.2,18.53Z" style="fill:#231f20"/><path d="M134.67,71.83l-1-.14a39.76,39.76,0,0,0,.13-9.75l1-.11A40.32,40.32,0,0,1,134.67,71.83Z" style="fill:#231f20"/><path d="M129.64,102.18l-.94-.35a18,18,0,0,0,.82-4.92c0-.42.06-.84.1-1.25.48-5.45,2.14-10.71,3.74-15.8l1,.3c-1.59,5-3.23,10.25-3.71,15.58L130.52,97A19,19,0,0,1,129.64,102.18Z" style="fill:#231f20"/><rect x="116.28" y="108.92" width="21.14" height="1" transform="translate(-15.84 197.19) rotate(-72.38)" style="fill:#231f20"/><path d="M107.54,138.59l-.27-1a10.28,10.28,0,0,0,5.32-4.2,40.13,40.13,0,0,0,2.26-3.78c.45-.82.9-1.65,1.39-2.45a31.07,31.07,0,0,1,6.71-7.79l.64.76a30.49,30.49,0,0,0-6.5,7.55c-.48.79-.92,1.6-1.37,2.41a40.45,40.45,0,0,1-2.31,3.88A11.09,11.09,0,0,1,107.54,138.59Z" style="fill:#231f20"/><path d="M105.53,140.32A26.52,26.52,0,0,0,98.82,139a54.64,54.64,0,0,0-5.58.05c-1.69.08-3.44.15-5.17.08a30.31,30.31,0,0,1-11.38-2.81l.43-.91a29.11,29.11,0,0,0,11,2.72c1.68.07,3.41,0,5.08-.08a53.74,53.74,0,0,1,5.68,0,26.66,26.66,0,0,1,7,1.36Z" style="fill:#231f20"/><path d="M54.88,136.2l-1-.21a83.82,83.82,0,0,0,2-19.08h1A85.12,85.12,0,0,1,54.88,136.2Z" style="fill:#231f20"/><path d="M80.17,161.26l-.13,0a.69.69,0,0,1-.57-.62v-.18a132,132,0,0,1-26-24.53A11,11,0,0,1,50.81,131c-.33-2,.55-4.35,2.61-5l.29.95c-1.51.46-2.17,2.36-1.91,3.85a10.27,10.27,0,0,0,2.47,4.47,130.88,130.88,0,0,0,26,24.51c.66.46.51,1,.45,1.1A.6.6,0,0,1,80.17,161.26Zm-.13-.71.43,0s0-.29-.23-.34a.4.4,0,0,0-.26.05Z" style="fill:#231f20"/><path d="M51.46,177.47l-.45-.61c-3.66-5-4-11.58-4.21-16.91l-1.29-27.79c-.08-1.63-.07-3.34,1-4.59,1.35-1.65,3.65-1.69,5.93-1.5l-.08,1c-2-.18-4-.16-5.08,1.13-.8,1-.8,2.41-.73,3.92l1.29,27.79c.23,5,.51,11.1,3.59,15.75a23.51,23.51,0,0,1,8.78-8A6.43,6.43,0,0,1,63,166.38a18.11,18.11,0,0,1,9.27-1.17l.43.06v.44a1.38,1.38,0,0,1-2.22,1l.55-.62a16.91,16.91,0,0,0-5.44.5l-2.08.73-.94.35a16.94,16.94,0,0,0-2.41,1.39l-3.67,2.55.83-.91a22.38,22.38,0,0,0-5.47,6.13Z" style="fill:#231f20"/><path d="M111.4,157.68l-.86-1.79.4-.23a129,129,0,0,0-.18-19.26l1-.08a130.54,130.54,0,0,1,.14,20.07Z" style="fill:#231f20"/><path d="M130.08,167.85l-.59.76a5,5,0,0,1-2.16-1.79l.71-.47c-.27-.55-.51-1.12-.75-1.68a13.46,13.46,0,0,0-2.34-4.11c-1.66-1.76-4.16-2.49-6.61-3s-4.84-.83-6.94.12l-1.59,1.86-.09-1.2c0-.6.34-1.12,1.1-1.49,2.41-1.17,5.26-.79,7.73-.27s5.28,1.33,7.13,3.3a14.45,14.45,0,0,1,2.53,4.4,16.6,16.6,0,0,0,1.87,3.57Z" style="fill:#231f20"/><path d="M126.28,175.39l0-1a28.32,28.32,0,0,0-3.95-13.13l.86-.51a29.33,29.33,0,0,1,4,12.37,7.9,7.9,0,0,0,.8-2.59,67.19,67.19,0,0,0,.91-16.39l1-.07a68.71,68.71,0,0,1-.92,16.64,6.33,6.33,0,0,1-1.89,4Z" style="fill:#231f20"/><path d="M129,157c-4.92-7.06-10.18-14-15.64-20.68l.78-.64c5.47,6.68,10.75,13.66,15.68,20.75Z" style="fill:#231f20"/><path d="M146.28,160.33c-6.81-9.28-17.65-14.88-28.35-19.55l.4-.92c10.82,4.73,21.8,10.41,28.76,19.88Z" style="fill:#231f20"/><path d="M.24,157.23l-.24-1a34,34,0,0,0,7.12-2.63,67.63,67.63,0,0,0,7.4-4.59l1.17-.79c9.85-6.66,20.4-12.55,30.59-18.25l.49.87c-10.18,5.69-20.7,11.57-30.52,18.21l-1.17.79a67.33,67.33,0,0,1-7.51,4.65A34.15,34.15,0,0,1,.24,157.23Z" style="fill:#231f20"/><path d="M77.38,186.51h-.7a7.85,7.85,0,0,1-3.47-.79,3.7,3.7,0,0,1-2-3.13,5.41,5.41,0,0,1,.43-1.77c.09-.23.18-.46.25-.7.62-2.13-.25-4.24-1.18-6.49a17.39,17.39,0,0,1-1.47-4.81,8.52,8.52,0,0,1,8.85-9.42,11.35,11.35,0,0,1,5.92,2.2,6.79,6.79,0,0,1,2.39,2.5l-.89.44a6.1,6.1,0,0,0-2.07-2.12,10.42,10.42,0,0,0-5.4-2,7.52,7.52,0,0,0-7.81,8.31,16.67,16.67,0,0,0,1.41,4.54c1,2.3,1.93,4.69,1.21,7.15-.08.26-.17.51-.27.77a4.71,4.71,0,0,0-.37,1.44,2.68,2.68,0,0,0,1.49,2.23,6.84,6.84,0,0,0,3,.67,8.34,8.34,0,0,0,5.09-1.08,4.48,4.48,0,0,0,1.3-1.4,1.1,1.1,0,0,1,.09-.71l1.14-2.54h0a3.82,3.82,0,0,1,.29,1.71,1.37,1.37,0,0,1,.55.12,2.91,2.91,0,0,1,1.37,2.12c0,.07,0,.13,0,.17a1.05,1.05,0,0,0,.06-.57c-.48-2.91-1.11-5.8-1.87-8.66a3.21,3.21,0,0,1-3.35-.24l-.52-.38.5-.4.33-.27a7.68,7.68,0,0,1-4.45-1.06l-.61-.36.56-.45a24.79,24.79,0,0,1,5.62-3.44,1.58,1.58,0,0,1,.77-1.74A1.32,1.32,0,0,1,85.37,168l-.09.2-.21.08q-.52.18-1,.39v0q.44,1.29.84,2.61l.51-.28.54.84a6.32,6.32,0,0,1-.74.49,93.72,93.72,0,0,1,2.47,10.83,1.85,1.85,0,0,1-.52,1.67.88.88,0,0,1-.91.09,1.29,1.29,0,0,1-.63-1c-.13-.55-.35-1.22-.82-1.44a.52.52,0,0,0-.33,0,6.52,6.52,0,0,1-.29.73l-.54.85h0a5.66,5.66,0,0,1-1.23,1.17A8.72,8.72,0,0,1,77.38,186.51Zm5.27-12.58a2.25,2.25,0,0,0,1.86-.27l-.24-.86C83.71,173.16,83.18,173.53,82.65,173.93Zm-4.18-2.13a7,7,0,0,0,5.46,0l0,0c-.27-.93-.57-1.85-.87-2.76A24.06,24.06,0,0,0,78.47,171.8Zm5.65-4.59h-.05c-.14.06-.2.22-.22.42l.58-.21-.09-.12A.34.34,0,0,0,84.12,167.21Z" style="fill:#231f20"/><path d="M100.17,184.26a5.6,5.6,0,0,1-1.15-.11,12.52,12.52,0,0,1-1.31-.39,11.34,11.34,0,0,0-1.15-.34,11.2,11.2,0,0,0-3.33-.06,9.84,9.84,0,0,1-4.31-.28,2.27,2.27,0,0,1-1.08-.77,2.35,2.35,0,0,1-.35-1.1l-1-6.82c-.52-3.72-1.16-8.34.62-12.29l.91.41c-1.66,3.69-1,8.15-.54,11.74l1,6.82a1.75,1.75,0,0,0,.18.68,1.25,1.25,0,0,0,.61.39,9.1,9.1,0,0,0,3.88.23,12,12,0,0,1,3.63.07c.43.1.84.24,1.25.37a11.63,11.63,0,0,0,1.2.36,5.17,5.17,0,0,0,5.5-2.7l.9.43A6.16,6.16,0,0,1,100.17,184.26Z" style="fill:#231f20"/><path d="M87.05,166.84a1.15,1.15,0,0,1-.56-.15,1.46,1.46,0,0,1-.76-1.34,2.68,2.68,0,0,1,1.19-1.77,13.19,13.19,0,0,1,6.54-3.11,14.07,14.07,0,0,1,5.51.66,34.7,34.7,0,0,1,7.39,3.09l-.49.87a34,34,0,0,0-7.18-3,13.18,13.18,0,0,0-5.11-.63,12.24,12.24,0,0,0-6,2.9c-.4.33-.78.68-.81,1.07a.45.45,0,0,0,.24.38l.71.81A1.07,1.07,0,0,1,87.05,166.84Z" style="fill:#231f20"/><path d="M106.61,182.41h0c-.11-.46-.2-.91-.27-1.38a2.5,2.5,0,0,0-.21-.35l.14-.09a21.44,21.44,0,0,1,.34-7.7c.08-.37.18-.75.28-1.12a9.42,9.42,0,0,0,.43-4.65,9.42,9.42,0,0,0-2.87-4.05l.7-.71c1.18,1.17,2.66,2.62,3.14,4.51a10.38,10.38,0,0,1-.43,5.15c-.1.36-.19.73-.28,1.09a20.46,20.46,0,0,0-.27,7.64,3.66,3.66,0,0,1,.29,1.57Z" style="fill:#231f20"/><path d="M109.07,182.36a.78.78,0,0,1-.49-.18.74.74,0,0,1-.2-.91l.21.11a61.82,61.82,0,0,1-1.14-8.58l0-.66.66.15a1.35,1.35,0,0,1,.55.25c0-1.26.09-2.52.19-3.77l1,.08a59.65,59.65,0,0,0,.31,12.81l-.42.1,0,.25-.23.19A.66.66,0,0,1,109.07,182.36Zm0-.73,0,0c0-.09,0-.19-.08-.28a.27.27,0,0,0-.12.06Z" style="fill:#231f20"/><path d="M118.27,188.76a1.75,1.75,0,0,1-.57-.1,29.57,29.57,0,0,1-11.08-7.5l.73-.68a28.83,28.83,0,0,0,9.14,6.59l1.52,0a8.15,8.15,0,0,0,4.3-.88,3,3,0,0,0,1.27-1.94,1.76,1.76,0,0,0-.32-1.39l.79-.62a2.73,2.73,0,0,1,.51,2.17,4,4,0,0,1-1.7,2.62,7.3,7.3,0,0,1-3.54,1,.74.74,0,0,1-.24.51A1.2,1.2,0,0,1,118.27,188.76Z" style="fill:#231f20"/><path d="M109.08,165.38l-.75-.67a11.84,11.84,0,0,1,12.76-3l-.37.93A10.8,10.8,0,0,0,109.08,165.38Z" style="fill:#231f20"/><path d="M123.35,187l-.72-.7c1.1-1.13,1.22-2.9,1.24-4.63.06-3.87,0-7.79-.22-11.65-.18-3.25-.56-6.9-3-9.14l.69-.73c2.65,2.5,3.07,6.37,3.25,9.81.21,3.89.29,7.84.23,11.73C124.84,183.56,124.7,185.64,123.35,187Z" style="fill:#231f20"/><path d="M41.51,62.8l0-.39a41.88,41.88,0,0,0-3.32-11.79l-.65-1.43.57.33-1.77-2.81a13.58,13.58,0,0,1-2.2-4.85c-.44-2.62.64-5.24,1.51-7.34,1-2.4,2.35-4.91,4.85-5.32l.16,1c-2,.33-3.2,2.57-4.09,4.71s-1.84,4.45-1.45,6.79a12.92,12.92,0,0,0,2.07,4.48l4,6.32-1.44-.86a43.26,43.26,0,0,1,2.06,6.55l.22,0,.52,4.13c0,.13,0,.26,0,.39Z" style="fill:#231f20"/><path d="M52.49,28.72a1.07,1.07,0,0,1-.46-.11.83.83,0,0,1-.49-.87l1,.15a.2.2,0,0,0-.06-.18s0-.13-.13-.23a1.54,1.54,0,0,0-.73-.31,25,25,0,0,0-12.25,0l-2.26.57,2.59-2.06.25.32a26,26,0,0,1,11.92.19,2.38,2.38,0,0,1,1.19.58,1.22,1.22,0,0,1,.11,1.66A.93.93,0,0,1,52.49,28.72Z" style="fill:#231f20"/><path d="M52.09,27.44c-2.48-3.07-5.14-6.05-7.91-8.86l-1-1.06,1.47.21A7.39,7.39,0,0,1,49.7,21l-.84.54a6.34,6.34,0,0,0-2.63-2.29c2.31,2.42,4.54,5,6.64,7.55Z" style="fill:#231f20"/><path d="M59.76,11.43l-1-.12a18.43,18.43,0,0,1,5.57-11L64.68,0,65,.32c1.12,1,.41,2.82.18,3.41L63,9.32l.51.39a1.21,1.21,0,0,1-1.33.4l-.5-.16,2.61-6.59a3.22,3.22,0,0,0,.32-1.89A17.49,17.49,0,0,0,59.76,11.43Z" style="fill:#231f20"/><path d="M64.9,8.41l-.68-.73a47.54,47.54,0,0,1,6.7-5.21l.61.78L69.68,5l-.27-.29A47.18,47.18,0,0,0,64.9,8.41Z" style="fill:#231f20"/><path d="M82.43,6l-.26-1,12.2-3.23L93.6,1.3l3.81-.06L99.13.52l-.66.7,2,0-2.59.68-.35.37a11.45,11.45,0,0,0-2.26,3.45l-.92-.39A12.09,12.09,0,0,1,96,2.5l-.26,0Z" style="fill:#231f20"/><path d="M133.37,73.62H133a.58.58,0,0,1-.49-.43l-.09-.33.3-.24,0,0a15.55,15.55,0,0,0,1.19-4.46h-.1a14.08,14.08,0,0,1,2.08-9.55l.87.5a19.49,19.49,0,0,0-1.6,6.95,20.61,20.61,0,0,1-1.66,7.21Zm-.6-.92L133,73l.1-.41A.46.46,0,0,0,132.77,72.7Z" style="fill:#231f20"/><path d="M91.66,118.08a7.09,7.09,0,0,1-4.18-4.41l1-.31A6.18,6.18,0,0,0,92,117.15Z" style="fill:#231f20"/><path d="M97.48,115a66.35,66.35,0,0,0-8.43-.87l0-1a68.25,68.25,0,0,1,8.55.88Z" style="fill:#231f20"/><path d="M99.46,115.45a2.32,2.32,0,0,1-.72-.27l-.94-.35.1-.38-.08-.09-1.61-.6.36-.94L99.71,114a8.81,8.81,0,0,0,2.51-.18l.21,1a10.11,10.11,0,0,1-2.27.22l0,.19-.56-.09Z" style="fill:#231f20"/><path d="M96,99.43l-2,.43a5.85,5.85,0,0,1-5.51-6.18l1,.1a4.63,4.63,0,0,0,1.22,3.47,4.83,4.83,0,0,0,2.41,1.49.76.76,0,0,1,.39-.4.62.62,0,0,1,.81.24l-.46.27h.16v.31a.29.29,0,0,0,0-.27c0-.07,0-.05.11,0Z" style="fill:#231f20"/><path d="M95.05,99.61l-.28-1a9,9,0,0,1,2.92-.34.93.93,0,0,0-.28-.7,2.57,2.57,0,0,0-1.33-.55,2.83,2.83,0,0,0-1.82.13,1,1,0,0,0-.52,1.18l-.9.45a2,2,0,0,1,1-2.51,3.81,3.81,0,0,1,2.47-.23,3.39,3.39,0,0,1,1.84.81,1.76,1.76,0,0,1,.33,2.23l-.16.24-.29,0A8,8,0,0,0,95.05,99.61Z" style="fill:#231f20"/><path d="M99.45,101a4.43,4.43,0,0,1-1.53-.26l.34-.94a3.56,3.56,0,0,0,3-.27l.5.87A4.57,4.57,0,0,1,99.45,101Z" style="fill:#231f20"/><path d="M98.41,100.54l-.12-1a21.39,21.39,0,0,1,2.76-.09c.56,0,1.11,0,1.66,0l0,1c-.57,0-1.14,0-1.71,0A20.72,20.72,0,0,0,98.41,100.54Z" style="fill:#231f20"/><rect x="46.98" y="74.49" width="1" height="17.16" transform="translate(-12.71 8.69) rotate(-9.23)" style="fill:#231f20"/><path d="M63.92,60a4.31,4.31,0,0,1-2.19-.56l.49-.87c1.71,1,3.9.12,6-.93l.45.89A11.21,11.21,0,0,1,63.92,60Z" style="fill:#231f20"/><path d="M74.43,60.11a17.52,17.52,0,0,0-4.9-1.76l.19-1a18.32,18.32,0,0,1,5.18,1.85Z" style="fill:#231f20"/><path d="M77.11,63.5a11.78,11.78,0,0,0-3.79-.25l-.09-1a12.92,12.92,0,0,1,4.11.27Z" style="fill:#231f20"/><rect x="111.36" y="65.06" width="6.77" height="1" style="fill:#231f20"/><path d="M53.85,43.52A33.59,33.59,0,0,1,51.37,36l1-.2a32.8,32.8,0,0,0,2.4,7.27Z" style="fill:#231f20"/><path d="M45.91,63.5l6.54-22.35,1,.28L47.16,62.77h.17a1.51,1.51,0,0,1-.6,1.1Z" style="fill:#231f20"/><rect x="47.1" y="58.23" width="1" height="8.75" style="fill:#231f20"/><rect x="133.11" y="40.45" width="1" height="9.91" transform="translate(-7.45 49.44) rotate(-20.41)" style="fill:#231f20"/><polygon points="138.39 59.23 138.39 59.23 138.53 59.05 138.26 58.42 139.19 58.04 138.39 59.23" style="fill:#231f20"/><path d="M139.27,63A39.27,39.27,0,0,1,133,47l1-.15a38.38,38.38,0,0,0,6.07,15.51Z" style="fill:#231f20"/><path d="M134.64,61.83a46.59,46.59,0,0,1-3.49-8.53l1-.28a45.54,45.54,0,0,0,3.42,8.34Z" style="fill:#231f20"/><path d="M102.94,139.73l-.08-1a11.4,11.4,0,0,0,4.28-1.19l.45.89A12.39,12.39,0,0,1,102.94,139.73Z" style="fill:#231f20"/><rect x="107.47" y="92.64" width="1" height="0.56" style="fill:#231f20"/><path d="M101.85,100.72h-.39l.06-1a5.71,5.71,0,0,0,6-6.44l1-.13a6.71,6.71,0,0,1-6.65,7.58Z" style="fill:#231f20"/><path d="M178.88,59.82l-1-.07c.25-3.45,2-6.92,5.4-10.61.95-1,2-2,2.95-3a46.84,46.84,0,0,0,5.05-5.57,26,26,0,0,0,3.23-6.07c.52-1.37,1-3.13.48-4.64l.94-.35c.67,1.83.09,3.81-.49,5.34a26.85,26.85,0,0,1-3.35,6.31,47.39,47.39,0,0,1-5.16,5.69c-1,1-2,2-2.91,3C180.79,53.34,179.11,56.61,178.88,59.82Z" style="fill:#231f20"/><path d="M178,52.1A31.09,31.09,0,0,1,191.06,22c1.49-1,3.75-2.34,6.21-2.2l-.05,1c-2.15-.12-4.23,1.1-5.6,2A30.48,30.48,0,0,0,179,51.94Z" style="fill:#231f20"/><path d="M157,170.57l-.92-.38a185.31,185.31,0,0,0,13.45-54.32c.53-5.8.8-11.72,1.05-17.44l1-22.62a59.21,59.21,0,0,1,1.29-11.59c1.4-5.63,4.43-10.72,7.36-15.65,3.16-5.33,6.43-10.84,7.55-16.94l1,.18c-1.14,6.27-4.46,11.86-7.67,17.27-2.89,4.87-5.88,9.9-7.24,15.38a57.68,57.68,0,0,0-1.27,11.39l-1,22.62c-.26,5.74-.52,11.67-1.05,17.49A186.58,186.58,0,0,1,157,170.57Z" style="fill:#231f20"/><path d="M164.32,81.6l-1-.18a40.25,40.25,0,0,0,.38-11.85l-.07-.64a12.38,12.38,0,0,1,0-4.66A12.48,12.48,0,0,1,166,60l10.82-14.63.81.6L166.81,60.61a11.83,11.83,0,0,0-2.19,3.91,11.9,11.9,0,0,0,0,4.29l.08.64A41.25,41.25,0,0,1,164.32,81.6Z" style="fill:#231f20"/><path d="M168,87.3l-.88-.49c1.08-2,1.35-4.52.84-7.87-.14-.87-.31-1.73-.48-2.6a30.59,30.59,0,0,1-.76-5.76c0-4.38,1.78-9,5.39-13.81l.79.6c-3.46,4.61-5.21,9.05-5.18,13.2a30.05,30.05,0,0,0,.74,5.58c.17.88.35,1.76.48,2.64C169.47,82.36,169.16,85.15,168,87.3Z" style="fill:#231f20"/><path d="M167.94,106.25l-1,0a56.73,56.73,0,0,0-1.81-15.35l1-.25A57.15,57.15,0,0,1,167.94,106.25Z" style="fill:#231f20"/><path d="M176.06,181.35l-1-.07a529.74,529.74,0,0,0,.68-55.65l1,0A531.83,531.83,0,0,1,176.06,181.35Z" style="fill:#231f20"/><path d="M182.47,185.94l-1-.24a112.39,112.39,0,0,0,.7-51l1-.22A113.27,113.27,0,0,1,182.47,185.94Z" style="fill:#231f20"/><path d="M179.45,72c-.39-5.47-.57-10.77,1.52-15.46a34,34,0,0,1,1.64-3.11c1.18-2.07,2.3-4,2.48-6.24l1,.08c-.19,2.45-1.42,4.59-2.6,6.66a32.3,32.3,0,0,0-1.6,3c-2,4.48-1.81,9.64-1.43,15Z" style="fill:#231f20"/><path d="M180.51,79.61a27.27,27.27,0,0,1-1-8.23l1,0a26.13,26.13,0,0,0,1,7.92Z" style="fill:#231f20"/><path d="M180.43,79.91a5.34,5.34,0,0,1-3.14-1l.59-.8a4.35,4.35,0,0,0,3.73.65l.29,1A4.89,4.89,0,0,1,180.43,79.91Z" style="fill:#231f20"/><path d="M182.86,78.62A4.87,4.87,0,0,1,180,77.7l.59-.81A4,4,0,0,0,185,77l.57.82A4.91,4.91,0,0,1,182.86,78.62Z" style="fill:#231f20"/><path d="M186.49,77a11.27,11.27,0,0,1-3.73-.66l.33-.94a10.41,10.41,0,0,0,3.41.6Z" style="fill:#231f20"/><rect x="186.3" y="74.47" width="1" height="1.81" transform="translate(80.28 246.34) rotate(-80.05)" style="fill:#231f20"/><path d="M183.54,78.06l-.61-.79a11.06,11.06,0,0,1,5.9-2.28l.08,1A10.12,10.12,0,0,0,183.54,78.06Z" style="fill:#231f20"/><path d="M193.33,76.91a9.53,9.53,0,0,0-2.88-1.57,3,3,0,0,0-2.78.52l-.7-.71a3.88,3.88,0,0,1,3.74-.77,10.36,10.36,0,0,1,3.2,1.72Z" style="fill:#231f20"/><path d="M184.85,82.6l-.29-1a10.79,10.79,0,0,1,4.07-.4l-.09,1A9.58,9.58,0,0,0,184.85,82.6Z" style="fill:#231f20"/><path d="M186,82.19a5.86,5.86,0,0,1-3.65-1.28l.63-.78a4.86,4.86,0,0,0,4,1l.2,1A5.64,5.64,0,0,1,186,82.19Z" style="fill:#231f20"/><path d="M189.23,80.75a2.21,2.21,0,0,1-1.42-.55,2,2,0,0,1-.71-2.15l1,.31a1.06,1.06,0,0,0,.41,1.08,1,1,0,0,0,1.12.22l.46.89A1.76,1.76,0,0,1,189.23,80.75Z" style="fill:#231f20"/><path d="M189.94,81a1.76,1.76,0,0,1-1-.3l.56-.83a.88.88,0,0,0,.72.09.86.86,0,0,0,0-1.65l.25-1a1.87,1.87,0,0,1,1.2,1,1.92,1.92,0,0,1,0,1.57,1.85,1.85,0,0,1-1.21,1A2.09,2.09,0,0,1,189.94,81Z" style="fill:#231f20"/><path d="M190.57,80.78a2.22,2.22,0,0,1-1.34-.48,2,2,0,0,1-.78-2.21l1,.33a1,1,0,0,0,.44,1.08,1,1,0,0,0,1.16.15l.57.83A1.78,1.78,0,0,1,190.57,80.78Z" style="fill:#231f20"/><path d="M192.06,80.36l-.53-.85a.8.8,0,0,0-.16-1.32l.32-1a1.8,1.8,0,0,1,.37,3.12Z" style="fill:#231f20"/><path d="M192.43,80.94,192,80a14.56,14.56,0,0,0,2.27-1.31,4.89,4.89,0,0,1-2.14-1l.63-.78a3.93,3.93,0,0,0,2.82.84l1.58-.16-1.2,1A15.18,15.18,0,0,1,192.43,80.94Z" style="fill:#231f20"/><rect x="191.59" y="81.32" width="3.22" height="1" transform="translate(-12.85 121.36) rotate(-33.81)" style="fill:#231f20"/><path d="M179.88,72.17l-.44-.89a41.83,41.83,0,0,1,7.48-2.87l.27,1A40.93,40.93,0,0,0,179.88,72.17Z" style="fill:#231f20"/><path d="M181.29,71.06l-.62-.79a5.7,5.7,0,0,1,2.47-.91l4.43-.84.19,1-4.43.85A4.74,4.74,0,0,0,181.29,71.06Z" style="fill:#231f20"/><path d="M185.2,70.92a16.88,16.88,0,0,1-3.25-.31l.19-1a16.26,16.26,0,0,0,4.62.22l.09,1A15.19,15.19,0,0,1,185.2,70.92Z" style="fill:#231f20"/><path d="M189.51,70.49h-.3a21.11,21.11,0,0,1-5.5-1.19l.34-.94a19.94,19.94,0,0,0,5.24,1.13.94.94,0,0,0,.5,0s0,.11.12.14l.31-.95a.78.78,0,0,1,.54.64,1,1,0,0,1-.34.95A1.45,1.45,0,0,1,189.51,70.49Z" style="fill:#231f20"/><rect x="188.81" y="67.3" width="1" height="3.49" transform="translate(58.19 222.05) rotate(-69.44)" style="fill:#231f20"/><path d="M192.27,69.21a2.91,2.91,0,0,0-2.44-.73l-.17-1a4,4,0,0,1,3.3,1Z" style="fill:#231f20"/><rect x="192.39" y="66.45" width="1" height="4.55" transform="matrix(0.53, -0.85, 0.85, 0.53, 32.55, 196.08)" style="fill:#231f20"/><path d="M209.54,67.1a6.14,6.14,0,0,1-2.72-.64l.46-.9a4.92,4.92,0,0,0,3.78.3l.31,1A5.7,5.7,0,0,1,209.54,67.1Z" style="fill:#231f20"/><path d="M213.27,66.86a17.82,17.82,0,0,1-4.9-1l.32-.94a17.5,17.5,0,0,0,4.63.9Z" style="fill:#231f20"/><path d="M214,65.39a6.81,6.81,0,0,1-3.22-.81l.48-.88a5.78,5.78,0,0,0,4.69.35l.35.93A6.68,6.68,0,0,1,214,65.39Z" style="fill:#231f20"/><path d="M217,64.66l-.2,0a1.25,1.25,0,0,1-.5-.18c-1.1,0-2.22,0-3.31,0l0-1q1.54,0,3.09,0l.14-.06a8.63,8.63,0,0,1,2-.52h0l-.17-1,4.3.74-.17,1-2-.34.52.59-1.15,0a7.72,7.72,0,0,0-1,0l-.79.59A1.31,1.31,0,0,1,217,64.66Z" style="fill:#231f20"/><rect x="222.03" y="60.64" width="1" height="3.62" transform="matrix(0.16, -0.99, 0.99, 0.16, 125.88, 272.4)" style="fill:#231f20"/><rect x="225.45" y="59.81" width="1" height="5.92" transform="translate(82.81 248.52) rotate(-67.91)" style="fill:#231f20"/><path d="M200.47,99.32A3.4,3.4,0,0,1,199,99a4.87,4.87,0,0,1-2.42-2.79,11.59,11.59,0,0,1,0-5.43l.06-.43a54.42,54.42,0,0,0-.17-17.37l1-.17a55.55,55.55,0,0,1,.17,17.69l-.07.44a10.94,10.94,0,0,0,0,5,3.85,3.85,0,0,0,1.91,2.2,2.28,2.28,0,0,0,1.78.15l.35.94A3.13,3.13,0,0,1,200.47,99.32Z" style="fill:#231f20"/><path d="M202.71,99.34a6,6,0,0,1-3-1.08l.53-.85c1.56,1,2.69,1.18,3.37.63a3.2,3.2,0,0,0,.62-.79c.06-.11.13-.22.2-.33a4.65,4.65,0,0,1,3.51-2.16,3.31,3.31,0,0,1,3.4,2.37l-1,.23a2.36,2.36,0,0,0-2.38-1.6,3.67,3.67,0,0,0-2.72,1.71,3.21,3.21,0,0,0-.19.31,4.09,4.09,0,0,1-.84,1A2.32,2.32,0,0,1,202.71,99.34Z" style="fill:#231f20"/><path d="M211.39,97.23l-.32-1a3.19,3.19,0,0,0-.24-6.11l.25-1a4.19,4.19,0,0,1,.31,8Z" style="fill:#231f20"/><path d="M211.68,78.42a3.15,3.15,0,0,1-2.39-1.18,3.12,3.12,0,0,1-.73-2.7l1,.22a2.17,2.17,0,0,0,.52,1.84,2.13,2.13,0,0,0,1.73.81l.06,1Z" style="fill:#231f20"/><path d="M211.88,75.3l-.16-1a6.4,6.4,0,0,0,3.16-2.06,17,17,0,0,1,1.49-1.31c3.5-2.65,8.3-1.89,11.49,0l.33.2a4,4,0,0,0,2.58.9l.19,1a4.69,4.69,0,0,1-3.29-1l-.32-.2c-3.44-2.07-7.71-2.11-10.38-.09a16.14,16.14,0,0,0-1.4,1.24A7.3,7.3,0,0,1,211.88,75.3Z" style="fill:#231f20"/><path d="M215.21,71.71l-.8-.6a8.58,8.58,0,0,1,10.37-2.43l-.45.89A7.55,7.55,0,0,0,215.21,71.71Z" style="fill:#231f20"/><path d="M213.21,71.56a5,5,0,0,1-3.8-1.69l.76-.65a4.09,4.09,0,0,0,5.27.65l.58.81A4.8,4.8,0,0,1,213.21,71.56Z" style="fill:#231f20"/><path d="M217.59,70.63a6.83,6.83,0,0,1-4-1.26l.59-.81a5.79,5.79,0,0,0,4.37,1l.18,1A6.73,6.73,0,0,1,217.59,70.63Z" style="fill:#231f20"/><rect x="219.35" y="67.29" width="1" height="2.54" transform="translate(78.46 250.34) rotate(-69.44)" style="fill:#231f20"/><path d="M225.9,69.83l-.18-1a3.59,3.59,0,0,0,2.34-1.6l.85.53A4.64,4.64,0,0,1,225.9,69.83Z" style="fill:#231f20"/><path d="M221.28,75.49a2.84,2.84,0,0,1-2.56-3.71l.93.36a1.84,1.84,0,0,0,1.67,2.35l0,1Z" style="fill:#231f20"/><path d="M221.81,75.06a2.59,2.59,0,0,1-1.27-.33l.5-.87A1.65,1.65,0,0,0,222.77,71l.55-.84a2.64,2.64,0,0,1-1.51,4.86Z" style="fill:#231f20"/><path d="M222.37,75.17a2.49,2.49,0,0,1-1.71-.73,2.34,2.34,0,0,1-.68-2.29l1,.27a1.35,1.35,0,0,0,.42,1.3,1.37,1.37,0,0,0,1.31.41l.28,1A2.25,2.25,0,0,1,222.37,75.17Z" style="fill:#231f20"/><path d="M221.75,75.82l-.2-1a1.3,1.3,0,0,0,.93-1,1.29,1.29,0,0,0-.34-1.34l.63-.78a2.45,2.45,0,0,1-1,4.13Z" style="fill:#231f20"/><rect x="221.22" y="72.82" width="1" height="2.27" transform="translate(-10.76 98.07) rotate(-24.37)" style="fill:#231f20"/><rect x="220.68" y="74.09" width="1" height="0.94" transform="translate(75.69 257.07) rotate(-70.07)" style="fill:#231f20"/><path d="M219.83,77.06a34.85,34.85,0,0,1-5.68-.7l.2-1a33.06,33.06,0,0,0,5.51.68Z" style="fill:#231f20"/><path d="M220.68,77.07l-.34-.95a25.81,25.81,0,0,1,6-1.59.84.84,0,0,0,.2,0l.31,1a1.43,1.43,0,0,1-.41.09A24.59,24.59,0,0,0,220.68,77.07Z" style="fill:#231f20"/><path d="M198.11,112l-.6-.8a8.76,8.76,0,0,0,1.41-1.44,9.26,9.26,0,0,1,1.52-1.55,3.61,3.61,0,0,1,2.94-.64,2.18,2.18,0,0,1,.92.47c1.25-1.75,3.85-2.16,5.91-1.61a17.44,17.44,0,0,1,3.67,1.6c.61.32,1.24.66,1.88,1a1.27,1.27,0,0,1,.6-.1l4.1.2,0,1-3.77-.18-.26.25a.69.69,0,0,1-.81,0,.57.57,0,0,1-.19-.22c-.68-.3-1.34-.65-2-1A16.83,16.83,0,0,0,210,107.4c-1.94-.52-4.4,0-5.14,1.74l-.45,1.07-.47-1.07a1.05,1.05,0,0,0-.77-.6A2.59,2.59,0,0,0,201,109a8.63,8.63,0,0,0-1.36,1.4A9.44,9.44,0,0,1,198.11,112Zm18.06-2.11Z" style="fill:#231f20"/><path d="M206.76,111.82l-.59-.27c-.33-.15-.66-.3-1-.47l.76.73-1.7-.36a14.18,14.18,0,0,1-4.94-2.12l1-.52a9,9,0,0,0,2.5,1.2c-.2-.27-.4-.55-.58-.84l-.39-1.51,1.11.84a19.08,19.08,0,0,0,2.82,1.77l.25-.58a1.42,1.42,0,0,1,.82,1.48Z" style="fill:#231f20"/><rect x="204.9" y="109.19" width="1" height="0.94" transform="translate(-24.16 70.7) rotate(-18.46)" style="fill:#231f20"/><path d="M203.85,112.44a14.53,14.53,0,0,1-4.67-.78l.32-1a13.32,13.32,0,0,0,5.42.69l.08,1C204.62,112.43,204.23,112.44,203.85,112.44Z" style="fill:#231f20"/><path d="M209.07,111.88a.81.81,0,0,1-.34-.08h-2.58v-1h2.21a1.19,1.19,0,0,1,1.09-.56c1.08,0,2.18-.06,3.27,0l0,1c-1,0-2,0-2.93,0l-.11.25a.61.61,0,0,1-.5.4Z" style="fill:#231f20"/><path d="M204.39,116.14c-.29,0-.59,0-.89,0a6.75,6.75,0,0,1-5.5-4.61l1-.29a5.71,5.71,0,0,0,4.66,3.9,11.74,11.74,0,0,0,2.77-.12l4.21-.51a8,8,0,0,0,2.1-.45,7.58,7.58,0,0,0,1.61-1.06,7.42,7.42,0,0,1,2.13-1.3l.32.95a6.39,6.39,0,0,0-1.83,1.14,8.31,8.31,0,0,1-1.83,1.18,8,8,0,0,1-2.37.53l-4.22.52A18.37,18.37,0,0,1,204.39,116.14Z" style="fill:#231f20"/><path d="M208.76,118.36l-.31-1h0a11.75,11.75,0,0,1-3-.13l.17-1a10.78,10.78,0,0,0,5.4-.46l2.1-.74-1.58,1.57h0a20.47,20.47,0,0,1,2.33-.25l.06,1A20.53,20.53,0,0,0,208.76,118.36Z" style="fill:#231f20"/><path d="M195.45,124.64a48.94,48.94,0,0,1-13-29.23c-.11-1.35-.17-2.74-.23-4.08-.17-3.77-.34-7.66-1.74-11.15l.92-.37c1.47,3.64,1.65,7.62,1.82,11.47.06,1.34.12,2.71.23,4A47.9,47.9,0,0,0,196.18,124Z" style="fill:#231f20"/><path d="M209.59,134.59c-4.17-.66-9.29-1.92-12-5.91a18.47,18.47,0,0,1-2.06-4.77,23.1,23.1,0,0,0-1.46-3.73l.88-.47a24.72,24.72,0,0,1,1.53,3.89,17.63,17.63,0,0,0,1.94,4.52c2.49,3.67,7.36,4.86,11.32,5.48Z" style="fill:#231f20"/><path d="M250.79,107.06l-.76-.64a13.32,13.32,0,0,0,2.75-8.1,40.11,40.11,0,0,0-1-8.87l-3-15.85,1-.19,3,15.85a41.68,41.68,0,0,1,1.05,9.09A14.23,14.23,0,0,1,250.79,107.06Z" style="fill:#231f20"/><path d="M215.39,133.71l-.39-.92a47.66,47.66,0,0,0,6.27-3.24c.39-.23.77-.47,1.15-.71.9-.57,1.83-1.15,2.79-1.66s2.16-1,3.23-1.49c.55-.23,1.11-.47,1.65-.72A40.92,40.92,0,0,0,249,107.4l.88.48a41.93,41.93,0,0,1-19.39,18l-1.67.73c-1.06.45-2.14.91-3.16,1.45s-1.84,1.07-2.73,1.62c-.38.25-.77.49-1.15.72A50.46,50.46,0,0,1,215.39,133.71Z" style="fill:#231f20"/><path d="M251.33,75.27h-1a10.63,10.63,0,0,1,2.1-6.31,3.67,3.67,0,0,1,1.84-1.45,1.88,1.88,0,0,1,2.32,1.07l-.95.31a.91.91,0,0,0-1.09-.42,2.81,2.81,0,0,0-1.32,1.09A9.64,9.64,0,0,0,251.33,75.27Z" style="fill:#231f20"/><path d="M260.22,79.53l-1-.14a19.7,19.7,0,0,0-.78-7.26,7.24,7.24,0,0,0-1-2.77,2.18,2.18,0,0,0-2.22-.93l-.32-1a3.18,3.18,0,0,1,3.34,1.28,8.24,8.24,0,0,1,1.22,3.14A21.22,21.22,0,0,1,260.22,79.53Z" style="fill:#231f20"/><path d="M251.92,79.73A16.93,16.93,0,0,1,254,71.49l.88.48a16,16,0,0,0-2,7.76Z" style="fill:#231f20"/><path d="M258.56,83.05l-1,0c.07-1.24-.81-2.28-1.74-3.38-.34-.41-.7-.83-1-1.27a8.29,8.29,0,0,1-1.43-5.82l1,.13a7.28,7.28,0,0,0,1.26,5.12c.28.4.61.78.95,1.19C257.6,80.18,258.65,81.42,258.56,83.05Z" style="fill:#231f20"/><path d="M260.81,86.84a18.24,18.24,0,0,1-2.34-11.94l1,.15a17.24,17.24,0,0,0,2.21,11.28Z" style="fill:#231f20"/><path d="M257.77,91.53a1.43,1.43,0,0,1-1-.47l.58-.51a9.28,9.28,0,0,0-1.87-3.5.8.8,0,0,0-.14-.14l-.08,0a3.29,3.29,0,0,0-1.38,3.14l-1,.16a4.27,4.27,0,0,1,1.81-4.13,1.15,1.15,0,0,1,.65-.23,1.2,1.2,0,0,1,.89.5,10.35,10.35,0,0,1,2.23,4.51l.1.5-.5.09A1,1,0,0,1,257.77,91.53Z" style="fill:#231f20"/><path d="M258.87,100.76a2,2,0,0,1-1.73-1.26,4.52,4.52,0,0,1-.22-2.09l.12-2.24-.37.14,0,0v.27a1.41,1.41,0,0,1-.88,1.32l-.34-.88a9.78,9.78,0,0,1-3.13-1,3.41,3.41,0,0,1-1.68-1.8,1.66,1.66,0,0,1,.1-1.28,1.61,1.61,0,0,1,1-.81,3.94,3.94,0,0,1,2.85.72,9,9,0,0,1,2.38,2l0,0-.08-.3a7.7,7.7,0,0,0-3.13-4.38l.56-.84a8.78,8.78,0,0,1,2.85,3.2l0-.24.05-.82.08.16a1.15,1.15,0,0,1,.43-.68,1.4,1.4,0,0,1,1.42-.08,6.9,6.9,0,0,1,4.34,5.61l.07.6L263,96a6,6,0,0,1-2.9-1.17,14.94,14.94,0,0,1,.48,2.93c.15,1.67-.39,2.79-1.44,3A1.63,1.63,0,0,1,258.87,100.76Zm-.76-6.82-.2,3.52a3.79,3.79,0,0,0,.15,1.65.93.93,0,0,0,.92.64c.59-.12.72-1.12.65-1.94a8.59,8.59,0,0,0-1.32-4.51,2,2,0,0,1-.12.47ZM252.3,92a.92.92,0,0,0-.29,0,.56.56,0,0,0-.4.31.6.6,0,0,0,0,.51,2.42,2.42,0,0,0,1.19,1.21,8.54,8.54,0,0,0,3.43,1l.38,0-.06-.16a6.6,6.6,0,0,0-2.44-2.26A3.62,3.62,0,0,0,252.3,92Zm6.5.3a9.47,9.47,0,0,0,3.67,2.52,5.9,5.9,0,0,0-3.58-4.11c-.37-.14-.46-.07-.47-.07s-.11.31-.12.4l-.17,1,0,0a1.85,1.85,0,0,1,.18.66Z" style="fill:#231f20"/><path d="M258.79,90.6,258,90A7.4,7.4,0,0,0,259.66,84l1-.17A8.47,8.47,0,0,1,258.79,90.6Z" style="fill:#231f20"/><path d="M260.18,133.65a59.74,59.74,0,0,1-9.42-27.06l1-.09A58.64,58.64,0,0,0,261,133.1Z" style="fill:#231f20"/><path d="M213.56,148.88a32.42,32.42,0,0,0-5.67-14.1l.81-.58a33.31,33.31,0,0,1,5.85,14.53Z" style="fill:#231f20"/><path d="M213.23,169.7c-1.85-2.12-2.76-4.89-3.56-7.34l-1.39-4.23a29.8,29.8,0,0,1-1.57-6.3c-.41-4,.75-7.9,2.07-11.55l.94.33c-1.28,3.55-2.4,7.34-2,11.12a29.13,29.13,0,0,0,1.53,6.08l1.39,4.24c.77,2.35,1.65,5,3.36,7Z" style="fill:#231f20"/><path d="M222,171.7a16,16,0,0,1-3.61-.41l.23-1c4.78,1.14,10.37-.26,15.32-3.85,4.5-3.26,8-7.75,11.28-12.08l6.55-8.51c2.89-3.76,5.88-7.65,7.74-12.09l.92.39c-1.91,4.56-4.94,8.5-7.87,12.31L246,155c-3.38,4.39-6.88,8.94-11.49,12.28A21.65,21.65,0,0,1,222,171.7Z" style="fill:#231f20"/><path d="M216.35,172.13a.83.83,0,0,1-.75-.42l.52-.29a18.55,18.55,0,0,0-6.56-4.1,3,3,0,0,1-1.77-1.44,1.22,1.22,0,0,1,.09-1,1.2,1.2,0,0,1,.78-.59,2.85,2.85,0,0,1,2,.46,71.7,71.7,0,0,1,6.37,4.49l.08,0v0l.2.16,2.31,1.84-2.79-1a1,1,0,0,1-.48-.35,72.4,72.4,0,0,0-6.22-4.37,1.87,1.87,0,0,0-1.18-.35.26.26,0,0,0-.15.12.21.21,0,0,0,0,.19,2.17,2.17,0,0,0,1.18.84,19.66,19.66,0,0,1,7.2,4.61l.18.18,0,.26a.86.86,0,0,1-.72.69Zm0-1h0a.15.15,0,0,0-.09.13l.11,0,.1-.06A.16.16,0,0,0,216.35,171.13Z" style="fill:#231f20"/><path d="M210.68,174.38a2.84,2.84,0,0,1-1.47-.36,1.61,1.61,0,0,1-.78-1.09,1.53,1.53,0,0,1,.13-1,2.36,2.36,0,0,1-1.46-1,1.59,1.59,0,0,1-.15-1.32c.32-1,1.43-1.38,3-1.13a22.76,22.76,0,0,1,5.41,1.61l-.4.91a22.12,22.12,0,0,0-5.17-1.53c-.74-.12-1.67-.08-1.86.46a.59.59,0,0,0,.08.49,1.3,1.3,0,0,0,.85.59,2.27,2.27,0,0,0,.69,0,3.09,3.09,0,0,1,1.64-.36l.27,0a8.29,8.29,0,0,1,6.11,1.7l.93.74-1.17.15a7.07,7.07,0,0,1-3.64-.83,10.1,10.1,0,0,0-2.23-.75l-.17,0-.55.11c-.28.06-.57.12-.86.16a1.12,1.12,0,0,0-.26.22.64.64,0,0,0-.17.56.66.66,0,0,0,.31.44,2.74,2.74,0,0,0,2,.06c1.1-.32,2.78-.81,3.74.34l-.77.64c-.5-.6-1.56-.35-2.69,0A4.48,4.48,0,0,1,210.68,174.38Z" style="fill:#231f20"/><rect x="212.98" y="173.84" width="1" height="7.45" transform="translate(-6.99 8.76) rotate(-2.31)" style="fill:#231f20"/><path d="M213.17,183a1.37,1.37,0,0,1-.63-.16l-.16-.09-.07-.18a3.17,3.17,0,0,1,.19-2.47l-.27-.74.94-.35.09.24.2.06a1.28,1.28,0,0,1,.92,1l-.69.14.7,1.88-.18.22A1.36,1.36,0,0,1,213.17,183Zm0-1.13a.69.69,0,0,0,0,.13h0Z" style="fill:#231f20"/><path d="M219.89,182a1.83,1.83,0,0,1-1.3-.56,3.69,3.69,0,0,1-.78-2l-1.16-6.79.14,0a1.09,1.09,0,0,1,0-.18H216l.12-.13-.65-.47a7.63,7.63,0,0,1,10.7-1.16l.59.52-.71.32a4.86,4.86,0,0,1-3.42-.14,10.42,10.42,0,0,0-1.43-.33,4.41,4.41,0,0,0-2.62.48,12.79,12.79,0,0,1,7.62,3.82,2.57,2.57,0,0,1,.92,2.43,1.75,1.75,0,0,1-.93,1.09,2.43,2.43,0,0,1-1.94.07,5.3,5.3,0,0,1-2.09-1.79l-.09-.1a32.59,32.59,0,0,0-4.22-4.25,4.28,4.28,0,0,0,1.06,1.62,9.39,9.39,0,0,1,2.41,5.7,1.91,1.91,0,0,1-.3,1.33,1.31,1.31,0,0,1-1,.52Zm-1.82-6.95.73,4.25a2.81,2.81,0,0,0,.52,1.46.79.79,0,0,0,.6.24.38.38,0,0,0,.27-.12,1.1,1.1,0,0,0,.09-.67,8.4,8.4,0,0,0-2.15-5.09Zm1.09-2.38a34.31,34.31,0,0,1,3.65,3.78l.08.1a4.72,4.72,0,0,0,1.68,1.49,1.43,1.43,0,0,0,1.13,0,.74.74,0,0,0,.42-.46c.11-.39-.12-.88-.68-1.48A11.81,11.81,0,0,0,219.16,172.68Zm1.71-2.62.42,0a11.91,11.91,0,0,1,1.57.36,7.72,7.72,0,0,0,1.67.36A6.53,6.53,0,0,0,220.87,170.06Z" style="fill:#231f20"/><path d="M205.51,19.34l-1-.05a5.33,5.33,0,0,1,.39-1.65,14.4,14.4,0,0,1,6-6.88,30.35,30.35,0,0,1,8.48-3.29c1.45-.36,2.08.1,2.35.55l-.85.52c-.2-.32-.94-.17-1.25-.1a29.05,29.05,0,0,0-8.21,3.18A13.4,13.4,0,0,0,205.84,18,4.25,4.25,0,0,0,205.51,19.34Z" style="fill:#231f20"/><path d="M255.68,29.26c-4.32-5.21-8.77-10.59-14.29-14.66-6.11-4.49-12.81-6.64-18.88-6l-.1-1c6.3-.62,13.26,1.59,19.57,6.24,5.62,4.14,10.12,9.57,14.46,14.82Z" style="fill:#231f20"/><path d="M274.92,62.59c-1.27-6.2-2.56-11.73-5.49-16.53a52.08,52.08,0,0,0-7-8.55l-9-9.51A23.55,23.55,0,0,0,248,23.38a23.63,23.63,0,0,0-7.55-2.22,24.91,24.91,0,0,1-7.82-2.31l.48-.87a24.08,24.08,0,0,0,7.52,2.19,24.92,24.92,0,0,1,7.86,2.33,24.61,24.61,0,0,1,5.59,4.81l9,9.51a53.52,53.52,0,0,1,7.17,8.72c3,4.93,4.32,10.55,5.61,16.85Z" style="fill:#231f20"/><path d="M285.27,90.65l-.92-.39c1.35-3.16,1.16-6.81.84-9.64-.35-3.08-1.1-7.58-3.61-11.1a29.46,29.46,0,0,0-5.49-5.38,31.06,31.06,0,0,1-5.59-5.46,31.7,31.7,0,0,1-3.18-6.11c-.37-.87-.74-1.74-1.14-2.58-1.69-3.56-3.65-5.79-6-6.82l.4-.91c2.58,1.13,4.7,3.51,6.5,7.3.41.86.79,1.74,1.16,2.61a30.21,30.21,0,0,0,3.07,5.92,30.07,30.07,0,0,0,5.42,5.27,30.87,30.87,0,0,1,5.67,5.58c2.63,3.71,3.42,8.37,3.78,11.56C286.51,83.46,286.71,87.28,285.27,90.65Z" style="fill:#231f20"/><path d="M221.54,53.13a53.73,53.73,0,0,1-8.89-8.88,18.28,18.28,0,0,1-3.87-12l1,.08a17.36,17.36,0,0,0,3.69,11.28,52.83,52.83,0,0,0,8.73,8.7Z" style="fill:#231f20"/><path d="M232.89,60.51c-4-.59-7.07-3.51-9.58-6.3A63.7,63.7,0,0,1,210.8,34.42l.94-.36a62.67,62.67,0,0,0,12.31,19.48c2.39,2.66,5.33,5.44,9,6Z" style="fill:#231f20"/><path d="M239.14,55.23a15.44,15.44,0,0,0-8.26-6.91,30.38,30.38,0,0,0-4.5-1.08c-.9-.17-1.83-.34-2.74-.56A27.64,27.64,0,0,1,206.23,33.4l.88-.49A26.56,26.56,0,0,0,223.87,45.7c.89.22,1.81.39,2.7.56a33.14,33.14,0,0,1,4.63,1.11A16.45,16.45,0,0,1,240,54.74Z" style="fill:#231f20"/><path d="M247.06,60.41c-.26-4.53-4.52-7.73-8.1-9.09-1-.39-2.11-.71-3.16-1a30.47,30.47,0,0,1-4.71-1.69c-4.79-2.33-8.09-7.06-10.74-10.86l.82-.57c2.72,3.9,5.8,8.31,10.35,10.53a30.67,30.67,0,0,0,4.57,1.63c1.06.31,2.17.64,3.23,1,3.85,1.47,8.45,5,8.74,10Z" style="fill:#231f20"/><path d="M255.74,65.12c-5.66-2.85-11.34-5.83-16.89-8.85l.47-.88c5.55,3,11.22,6,16.87,8.84Z" style="fill:#231f20"/><path d="M262,69.1a88.84,88.84,0,0,0-12.12-11l.6-.8a89.58,89.58,0,0,1,12.25,11.1Z" style="fill:#231f20"/><path d="M278.34,95.89c-1.17-7.86-2.5-16.77-7.27-23.8a56.4,56.4,0,0,0-3.51-4.49c-.56-.67-1.13-1.35-1.68-2a62.2,62.2,0,0,1-9.23-15.76l.92-.38a61.67,61.67,0,0,0,9.09,15.52c.55.68,1.11,1.35,1.67,2a57.58,57.58,0,0,1,3.57,4.57c4.89,7.22,6.24,16.25,7.43,24.21Z" style="fill:#231f20"/><path d="M301.08,159c-.06-5.67-2-11.49-6.19-18.9-1.08-1.88-2.23-3.77-3.35-5.6a97.24,97.24,0,0,1-6.69-12.16,48.7,48.7,0,0,1-4-17.22c-.08-1.88,0-3.78,0-5.63a51.43,51.43,0,0,0-.52-10.15l1-.18a52.13,52.13,0,0,1,.54,10.35c0,1.82-.05,3.72,0,5.56a47.71,47.71,0,0,0,3.87,16.88,97.44,97.44,0,0,0,6.62,12c1.12,1.83,2.29,3.73,3.37,5.63,2.68,4.69,6.24,11.8,6.32,19.38Z" style="fill:#231f20"/><path d="M293,158.08c0-8-3.6-15.65-7.11-22.07-.72-1.32-1.46-2.62-2.2-3.93-3.12-5.53-6.35-11.25-8.12-17.46l1-.27c1.73,6.09,4.93,11.76,8,17.23.74,1.32,1.48,2.63,2.2,3.95,3.58,6.53,7.24,14.32,7.24,22.55Z" style="fill:#231f20"/><path d="M288.52,179.3l-1-.07a39.87,39.87,0,0,0-.95-11.88A80.75,80.75,0,0,0,281.76,154l-12.89-30,.92-.4,12.89,30a82.55,82.55,0,0,1,4.87,13.48A41.22,41.22,0,0,1,288.52,179.3Z" style="fill:#231f20"/><path d="M214.67,74.26l-.58-.81c3-2.13,6.28-4.16,9.78-3.47l-.19,1C220.56,70.35,217.52,72.26,214.67,74.26Z" style="fill:#231f20"/><path d="M229.4,73.36l-3.62-.64,1.32-.27.1-.51,1.27.23A11.25,11.25,0,0,1,231.8,72l-.11,1a10.39,10.39,0,0,0-2.23,0Z" style="fill:#231f20"/><path d="M190.29,79.35a1.43,1.43,0,0,1-1.13-.6.38.38,0,0,0,0,.15l-1,.21a1.41,1.41,0,0,1,.25-1.15,1.54,1.54,0,0,1,.36-.36,1.21,1.21,0,0,1,.45-.87l.23-.19,2.11.9,0,.37a1.59,1.59,0,0,1-.49,1v.35l-.31.13A1.25,1.25,0,0,1,190.29,79.35Z" style="fill:#231f20"/><path d="M193,77.61a5.92,5.92,0,0,0-4.81-.5l-.32-1a6.94,6.94,0,0,1,5.63.58Z" style="fill:#231f20"/><path d="M195.12,78.71a2.44,2.44,0,0,0-1.3-.74l.2-1A3.45,3.45,0,0,1,195.86,78Z" style="fill:#231f20"/><path d="M248.94,111.24l-.9-.45c2.4-4.74,3.26-10.67,2.61-18.11-.26-3-.72-6-1.17-8.91-.49-3.18-1-6.48-1.24-9.75l1-.08c.24,3.24.74,6.52,1.23,9.68.45,2.93.91,6,1.17,9C252.31,100.23,251.42,106.33,248.94,111.24Z" style="fill:#231f20"/><path d="M258.12,110a18.76,18.76,0,0,1-6-11.71l1-.11a17.73,17.73,0,0,0,5.62,11.08Z" style="fill:#231f20"/><path d="M271.24,117a30.56,30.56,0,0,1-18.11-20.87l1-.24a29.57,29.57,0,0,0,17.51,20.18Z" style="fill:#231f20"/><path d="M248.74,72.43a69.67,69.67,0,0,0-10.59-12.82l.69-.72a70.16,70.16,0,0,1,10.74,13Z" style="fill:#231f20"/><path d="M249.74,74.46A86.07,86.07,0,0,0,241.46,57l.85-.53a87.61,87.61,0,0,1,8.38,17.66Z" style="fill:#231f20"/><path d="M267.48,108.83l-1-.13a37.12,37.12,0,0,0-5.37-24.17L262,84A38.17,38.17,0,0,1,267.48,108.83Z" style="fill:#231f20"/><path d="M268.7,140.51a25.41,25.41,0,0,0-2.48-6.31,25.73,25.73,0,0,1-2.58-6.62c-.85-4.52.71-9,2.21-13.3l.44-1.26c1.44-4.21,2.82-9.59.65-13.93l.9-.44c2.33,4.66.9,10.3-.61,14.69l-.43,1.27c-1.47,4.19-3,8.53-2.17,12.79a25,25,0,0,0,2.48,6.36,25.66,25.66,0,0,1,2.57,6.56Z" style="fill:#231f20"/><path d="M184.67,27.4c-.4-1.59.23-3.34,1.94-5.34A14.06,14.06,0,0,1,191.8,18a7.39,7.39,0,0,1,6.65.28l-.53.85a6.36,6.36,0,0,0-5.73-.21,13.29,13.29,0,0,0-4.82,3.82c-1.48,1.74-2.05,3.19-1.73,4.44Z" style="fill:#231f20"/><path d="M209.33,32.07a7.58,7.58,0,0,1-5.91-10.94l.89.45a6.57,6.57,0,0,0,5.14,9.49Z" style="fill:#231f20"/><path d="M218,32.73a9.93,9.93,0,0,0-6.29-5.17,34.15,34.15,0,0,0-6.75-1.23l-1.85-.21.12-1,1.85.22A34.7,34.7,0,0,1,212,26.61a10.87,10.87,0,0,1,6.9,5.74Z" style="fill:#231f20"/><path d="M191.66,27.34l-1-.28a6.33,6.33,0,0,1,3.69-4,3,3,0,0,1,2.1-.18,1.73,1.73,0,0,1,1.21,2,1.36,1.36,0,0,1-1.09,1,1.15,1.15,0,0,1-1.19-.43l.82-.59c0,.06.16,0,.19,0a.38.38,0,0,0,.3-.24c.08-.31-.23-.67-.56-.78a2.1,2.1,0,0,0-1.41.16A5.37,5.37,0,0,0,191.66,27.34Z" style="fill:#231f20"/><path d="M193.49,29.09a.61.61,0,0,1-.47-.24.84.84,0,0,1,.22-1.14,5.51,5.51,0,0,1,4.94-1.32l.37.09,0,.38A1.38,1.38,0,0,1,196.49,28l.52-.76a4.54,4.54,0,0,0-2.89,1,.67.67,0,0,1-.35.75A.72.72,0,0,1,193.49,29.09Z" style="fill:#231f20"/><path d="M202,19.62a2.35,2.35,0,0,1-1.53-1,.9.9,0,0,0-.72-.31l-1-.19a.94.94,0,0,1,.65-.77,1.8,1.8,0,0,1,1.68.52c.32.33.73.78.93.69l.43.9A1.17,1.17,0,0,1,202,19.62Z" style="fill:#231f20"/><path d="M183,137.51l-1-.3c2.63-8.44,1.33-17.67-.28-25.58-.33-1.64-.69-3.28-1-4.93-1.48-6.81-3-13.86-2.87-20.94l1,0c-.14,7,1.38,14,2.85,20.71.36,1.65.71,3.29,1.05,4.94C184.35,119.47,185.66,128.85,183,137.51Z" style="fill:#231f20"/><path d="M197.31,154.68c-.47-8.55-1-18.25-5.52-26.23-.91-1.62-2-3.18-3-4.69-.82-1.18-1.67-2.39-2.43-3.64a39.21,39.21,0,0,1-5.79-18.48l1,0a38.24,38.24,0,0,0,5.64,18c.75,1.22,1.59,2.42,2.4,3.59,1.07,1.52,2.17,3.11,3.11,4.77,4.62,8.18,5.16,18,5.64,26.67Z" style="fill:#231f20"/></svg>