<?xml version="1.0" encoding="utf-8"?>
<!-- Generator: Adobe Illustrator 26.2.1, SVG Export Plug-In . SVG Version: 6.00 Build 0)  -->
<svg version="1.1" id="Layer_1" xmlns="http://www.w3.org/2000/svg" xmlns:xlink="http://www.w3.org/1999/xlink" x="0px" y="0px"
	 viewBox="0 0 302.1 188.8" style="enable-background:new 0 0 302.1 188.8;" xml:space="preserve">
<style type="text/css">
	.st0{fill:#FFFFFF;}
</style>
<path class="st0" d="M45.5,59.3c-1.7-0.5-2.6-2.2-3.3-3.8c-2-5.1-3.8-10.4-5.1-15.8c-0.1,0-0.2-0.1-0.3-0.1
	c-0.3-0.3-0.4-0.8-0.3-1.2c0.6-2.6,1.5-5.1,2.7-7.5c0.2-0.5,0.6-1,1-1.2c0.3-0.1,0.6-0.2,0.9-0.2h0.3c0.5-0.1,1-0.4,1.4-0.7
	c0.2-0.1,0.4-0.3,0.6-0.4c2.6-1.5,6-0.9,7.9,1.5l-0.8,0.6c-1.6-1.9-4.4-2.5-6.6-1.2c-0.2,0.1-0.4,0.2-0.5,0.4
	c-0.5,0.4-1.1,0.7-1.8,0.9l-0.4,0c-0.2,0-0.4,0-0.5,0.1c-0.3,0.2-0.5,0.5-0.6,0.8c-1.1,2.3-2,4.7-2.6,7.1l0.1,0.1
	c0.2,0.1,0.3,0.3,0.3,0.6c0,0,0,0,0,0.1c1.4,5.5,3.1,10.8,5.2,16.1c0.6,1.5,1.3,2.9,2.6,3.3L45.5,59.3z"/>
<path class="st0" d="M46.1,51.5l-1.1-2c-2.2-3.9-3.2-8.3-3-12.8h1c-0.1,3.7,0.6,7.4,2.2,10.7l0.7,0L46.1,51.5z"/>
<path class="st0" d="M48.3,64.3L47.5,64c-1.8-0.7-2.1-2.9-2.2-4.5c-0.5-8.3-0.4-16.7,0.3-25h-0.7c0-0.4,0.2-0.7,0.5-0.9
	c0.3-0.2,0.7-0.2,1-0.1l0.3,0.2v0.3C46.2,39,46,44,46,49h1c-0.1,4.8,0.2,9.7,1.2,14.4L48.3,64.3z M46,55c0,1.5,0.1,3,0.2,4.5
	c0,1,0.2,1.9,0.7,2.8C46.4,59.8,46.2,57.4,46,55z"/>
<path class="st0" d="M56.7,29.4c-0.2,0-0.3,0-0.5-0.1c-1.4-0.4-2.1-1.9-2.2-4.2c-0.2-4.6,0-10.4,3.5-14.5l0.8,0.6
	C55,15,54.8,20.6,55,25c0.1,1.9,0.6,3,1.5,3.3c0.1,0.1,0.3,0.1,0.4,0c0,0,0-0.1-0.2-0.5L56,26.5l-0.1-0.1c-0.3-0.2-0.5-0.6-0.3-1
	l0.2-0.4l0.7,0.3l0.3,0.5c2.6,1.3,5.6,1.7,8.5,1.2c1.9-0.3,3.8-0.8,5.6-1.4l-0.3-0.1l-2.2-0.9l4.5-0.1v0.4c0.1,0,0.3,0,0.4-0.1
	l1-0.4l0.4,0.9c-0.3,0.2-0.7,0.3-1.1,0.4c-2.6,1-5.3,1.8-8.1,2.3c-2.6,0.4-5.3,0.2-7.8-0.7l0.1,0.2c0.3,0.4,0.3,0.9,0.2,1.4
	C57.6,29.2,57.2,29.4,56.7,29.4z"/>
<path class="st0" d="M89.9,29.8c-0.4,0-0.8,0-1.1,0c-7-0.4-13.7-3.2-18.8-8c-0.9-0.9-1.2-1.6-0.9-2.4l0.9,0.4
	c-0.2,0.4,0.3,1,0.7,1.3c5,4.6,11.4,7.4,18.2,7.8c1.6,0.1,3.2-0.1,4.8-0.5c-1.8-0.5-3.7-1-5.5-1.3l0.2-1c2.3,0.4,4.6,1,6.9,1.7
	l1.1,0.3l-1,0.6C93.6,29.4,91.8,29.8,89.9,29.8z"/>
<path class="st0" d="M117.3,34.4l-9.7-6.8c0.3,0.4,0.6,0.9,0.9,1.4l0.5,0.8h-1c-7,0-13.6-2.7-20-5.3c-2-0.8-4.1-1.7-6.2-2.5
	c-0.6-0.2-1.2-0.4-1.5-0.1l-0.6-0.8c0.8-0.4,1.7-0.4,2.5,0c2.1,0.8,4.2,1.6,6.2,2.5c6,2.5,12.3,5.1,18.8,5.3
	c-1.8-2.6-4.3-4.6-7.2-5.9l0.4-0.9c1.5,0.6,2.8,1.4,4.1,2.3l13.5,9.4L117.3,34.4z"/>
<path class="st0" d="M128.1,40.6l0.7,1.6c-11-6.6-18.1-13.3-22.3-21c-0.3-0.4-0.2-1,0.1-1.4c0.2-0.2,0.5-0.3,0.8-0.2l-0.4,0.9
	c0.1,0,0.3,0,0.3-0.1c0,0.1,0,0.2,0,0.3C111.3,28,117.9,34.4,128.1,40.6l0.7,1.6L128.1,40.6z"/>
<path class="st0" d="M61.8,14.5h-1C61,9.4,67.1,7,69,6.4c10.9-3.5,22.7-1.9,32.9-0.1l-0.2,1C91.6,5.5,80,3.9,69.3,7.4
	C67.6,7.9,61.9,10.1,61.8,14.5z"/>
<path class="st0" d="M122.8,14.4c-2.8-4.7-7.3-8.2-12.5-9.6C105,3.4,99.4,3.5,94.2,5.1C93,5.4,91.9,6,91,6.8l-0.8-0.7
	c1-1,2.3-1.7,3.7-2c5.4-1.7,11.2-1.8,16.6-0.3c5.5,1.5,10.2,5.2,13.1,10.1L122.8,14.4z"/>
<path class="st0" d="M139.5,39.1c-2.8-2.7-4.3-6.4-5.9-9.9c-1.1-2.9-2.5-5.6-4.3-8.1c-3.1-4-7.8-6.5-12-8.8l0.5-0.9
	c4.3,2.3,9.1,4.9,12.3,9.1c1.8,2.6,3.3,5.4,4.4,8.3c1.5,3.6,3,7,5.6,9.6L139.5,39.1z"/>
<path class="st0" d="M138.8,63.4c-0.6-4.2-0.7-8.4-0.1-12.6c0.1-1,0.3-2.1,0.5-3.2c0.6-3.9,1.3-7.8,0.1-11.5l0.9-0.3
	c1.3,3.9,0.6,8-0.1,12c-0.2,1.1-0.4,2.1-0.5,3.2c-0.5,4.1-0.5,8.2,0.1,12.3L138.8,63.4z"/>
<path class="st0" d="M123.4,41.4c-3.7-3.6-7-7.6-10.1-11.7c-1.2-1.5-2.1-3.3-2.6-5.2l1-0.2c0.5,1.7,1.3,3.4,2.4,4.8
	c3,4.1,6.4,8,10,11.6L123.4,41.4z"/>
<path class="st0" d="M135.3,54.7c-0.3,0-0.7-0.2-0.9-0.4c-4.3-5.9-8.1-12.3-11.2-18.9l0.9-0.4c3,6.4,6.6,12.4,10.7,18.2l0.3-0.2
	l0.8,1V54c0,0.3-0.1,0.6-0.4,0.7C135.5,54.7,135.4,54.7,135.3,54.7z"/>
<path class="st0" d="M135.4,54.8c-0.6-0.3-1-0.9-1.1-1.5l1-0.1c0,0.3,0.2,0.6,0.5,0.8L135.4,54.8z"/>
<path class="st0" d="M44.7,69.6c-1-3.5-1.8-7.1-2.2-10.8l1-0.1c0.4,3.6,1.1,7.1,2.1,10.6L44.7,69.6z"/>
<path class="st0" d="M54.2,72.8h-0.5c-0.3-0.1-0.5-0.3-0.5-0.6c-0.8-0.4-1.6-0.7-2.5-0.9c-2.5-0.7-5.1-1.2-7.7-1.7l0.2-1
	c2.6,0.4,5.3,1,7.8,1.7c1,0.2,2.1,0.6,3,1.1c0.4,0.2,0.6,0.6,0.4,1L54.2,72.8z"/>
<path class="st0" d="M56.5,76.7l-0.2-0.2l0,0c-3.3-0.9-6.6-2.1-9.8-3.6l0.4-0.9c3.1,1.4,6.3,2.6,9.6,3.6l0.8,0.2L56.5,76.7z"/>
<path class="st0" d="M57,76.7L57,76.7c-0.4,0-0.8-0.3-1-0.6c-1.3-1.8-1.8-4-1.3-6.2l0.8,0.2c0.1,0,0.2,0,0.3,0
	c0.4,0.1,0.8,0.4,0.9,0.8c0.6,1.3,1.1,2.7,1.3,4.2c0.1,0.5,0,1-0.3,1.4C57.5,76.6,57.3,76.7,57,76.7z M55.5,71.4
	c0,1.4,0.5,2.8,1.3,4c0.1,0.1,0.1,0.1,0.2,0.2c0,0,0-0.3,0-0.5c-0.2-1.4-0.6-2.7-1.2-3.9c0-0.1-0.1-0.1-0.1-0.2c0.2,0,0,0.1,0,0
	s0,0.1,0,0s-0.1-0.2-0.2-0.2v0.3C55.4,71.1,55.5,71.4,55.5,71.4z"/>
<path class="st0" d="M64.6,80.4l-0.4-0.3c-0.6-0.5-0.9-1.2-1-1.9c-0.1-0.4-0.2-0.8-0.4-1.2c-0.6-0.7-1.7-0.4-2.9-0.2l-0.4,0.1
	c-1.1,0.2-2.2-0.1-3-0.8c-0.4-0.4-0.6-1-0.5-1.5l1,0.2c0,0.2,0,0.4,0.2,0.6c0.6,0.5,1.4,0.6,2.1,0.5l0.4-0.1
	c1.3-0.2,2.9-0.6,3.8,0.6c0.3,0.5,0.6,1.1,0.6,1.7c0,0.2,0.1,0.4,0.2,0.6c0.1-0.5,0.1-1,0-1.5c-0.1-0.8,0-1.6,0.2-2.4
	c0.7-2.1,3-2.9,4.8-3.4c5.5-1.4,11.3-1.8,17-1c1.7,0.2,3.8,0.7,4.8,2.4c0.2,0.3,0.4,0.7,0.5,1c0.1,0.4,0.3,0.7,0.5,1
	c0.2,0.3,0.5,0.4,0.9,0.5c0.1,0,0.3,0,0.4-0.1c0.2-0.2,0.2-0.7,0.1-1.2c-0.1-1.4-0.5-2.8-1.2-4c-0.6-1.1-1.8-1.8-3.1-1.7l-0.2-1
	c1.7-0.2,3.3,0.6,4.2,2.1c0.7,1.3,1.2,2.8,1.3,4.3c0.2,0.7,0.1,1.4-0.3,2c-0.3,0.3-0.7,0.5-1.2,0.5c-0.6-0.1-1.2-0.4-1.6-0.9
	c-0.3-0.4-0.5-0.8-0.6-1.2c-0.1-0.3-0.3-0.6-0.4-0.9c-0.8-1.3-2.6-1.7-4.1-1.9c-5.5-0.7-11.2-0.4-16.6,1c-2.4,0.6-3.6,1.5-4,2.7
	c-0.2,0.7-0.3,1.4-0.2,2.1c0.2,1,0,2.1-0.4,3L64.6,80.4z"/>
<path class="st0" d="M58.4,72L58,71.1c3.7-1.6,7.5-2.7,11.4-3.5c2-0.4,4.1-0.6,6.2-0.6c0.7,0,1.3,0.1,2,0.1c0.9,0.1,1.8,0.1,2.6,0.2
	c0.6,0,1.1,0,1.7-0.1c2-0.1,4.1-0.3,5.8,0.9L87.3,69c-1.5-1-3.3-0.8-5.3-0.7c-0.6,0-1.2,0.1-1.8,0.1c-0.9,0-1.8-0.1-2.7-0.2
	c-0.7-0.1-1.3-0.1-1.9-0.1c-2,0-4,0.2-6,0.6C65.7,69.3,62,70.5,58.4,72z"/>
<path class="st0" d="M68.8,74.4c-0.5,0.1-0.9,0.1-1.4,0.2l-0.1-0.7l0.1-0.4l4.1-0.9l0.2-0.1c0.4-0.3,0.9-0.4,1.4-0.5l0.5-0.1
	c0.3-0.2,0.6-0.3,0.8-0.5l0.2,0.3h0.6l2.3,0.5l-1.9,0.4l0.3,0.1l-2.4,0.5l0.1,0.1l0,0l4.7-0.1l-3.4,1.1c-1.8,0.6-3.6,0.8-5.5,0.6
	v-0.4"/>
<path class="st0" d="M70.6,75.4l-0.2-1l0.7-0.2l-0.4-0.8c0.9-0.5,1.9-0.8,2.9-1.1l3.5-1.3l0.3,0.9l-0.3,0.1h0.1l1.8,0.2l-1.7,0.8
	C75.2,74.1,72.9,74.9,70.6,75.4z M73.9,73.4L72,74c0.8-0.2,1.7-0.5,2.5-0.8C74.3,73.3,74.1,73.3,73.9,73.4z"/>
<path class="st0" d="M79.2,75.9c-0.4,0-0.9-0.1-1.2-0.4c-1.1-0.7-1.4-2.2-0.8-3.3l0.8,0.5c-0.4,0.7-0.1,1.6,0.6,1.9
	c0.6,0.3,1.4,0.2,1.8-0.4l0.8,0.5C80.8,75.5,80,75.9,79.2,75.9z"/>
<path class="st0" d="M80.3,76.8c-0.8,0-1.6-0.2-2.2-0.7l0.6-0.8c1,0.7,2.3,0.7,3.2-0.1c0.4-0.5,0.5-1.1,0.3-1.7
	c-0.1-0.4-0.4-0.8-0.9-0.9l0.2-1c0.8,0.2,1.4,0.8,1.6,1.6c0.3,0.9,0.1,1.9-0.6,2.6C82,76.4,81.2,76.8,80.3,76.8z"/>
<path class="st0" d="M80.2,75.7c-0.7,0-1.3-0.3-1.8-0.7c-0.7-0.7-0.8-1.8-0.4-2.7l0.9,0.4c-0.2,0.5-0.2,1.1,0.2,1.5
	c0.4,0.4,1,0.5,1.5,0.3l0.4,0.9C80.8,75.7,80.5,75.7,80.2,75.7z"/>
<path class="st0" d="M80.4,75.1c-0.4-0.8-0.5-1.7-0.3-2.6l1,0.2c-0.1,0.7,0,1.3,0.3,1.9L80.4,75.1z"/>
<path class="st0" d="M87.9,75.4c-0.8-1.2-2-2.1-3.5-2.5l0.2-1c1.7,0.4,3.2,1.5,4.1,3L87.9,75.4z"/>
<path class="st0" d="M89,76.8c-0.5,0-1.1-0.1-1.6-0.4l0.5-0.9c0.7,0.3,1.4,0.3,2.1,0l0.4,0.9C90,76.7,89.5,76.8,89,76.8z"/>
<rect x="82.4" y="76.7" transform="matrix(0.9835 -0.1807 0.1807 0.9835 -12.5593 16.5769)" class="st0" width="4.6" height="1"/>
<path class="st0" d="M82.7,80.4l-0.2-1c2.1-0.5,4.1-1.5,5.7-3l0.7,0.7C87.1,78.8,85,79.9,82.7,80.4z"/>
<path class="st0" d="M81.3,93.2c-1.5,0-2.9-0.2-4.4-0.5c-2.6-0.4-5.7-1-8-2.7c-3.5-2.4-4.9-6.6-6.2-11l1-0.3
	c1.2,4.3,2.5,8.3,5.7,10.5c2.2,1.6,5.1,2.1,7.6,2.5c2.3,0.4,5,0.8,7.3,0c1.9-0.9,3.6-2.3,4.8-4.1c1.9-2.6,4.1-6.4,3.3-10.3l1-0.2
	c0.9,4.2-1.4,8.4-3.4,11.1c-1.3,1.9-3.1,3.5-5.3,4.4C83.6,93,82.5,93.2,81.3,93.2z"/>
<path class="st0" d="M93.8,76.2l0.4-1.5c0.5-1.6,2-2.7,3.7-2.8c1.5,0,3,0.3,4.4,0.8l0.6,0.2l-0.3,0.5c-0.5,0.8-1.5,1.1-2.3,0.7
	l0.4-0.9c-0.8-0.3-1.7-0.4-2.6-0.4c-0.8,0.1-1.5,0.4-2.1,0.9l0.3,0.4L93.8,76.2z"/>
<path class="st0" d="M106,77l-1.6-0.3c-0.7-0.1-0.9-0.8-1-1.2c0-0.1,0-0.1,0-0.2l0,0c0-0.1-0.1-0.2-0.1-0.2c-0.3-0.6-1.5-0.4-2-0.3
	l-5.7,1.3l0.5-1.6l1,0.3l0,0l4.1-0.9c2-0.5,2.9,0.2,3.2,0.8c0,0,0,0.1,0.1,0.2l0,0c0.1,0.4,0.3,0.8,0.6,1.1L106,77z"/>
<path class="st0" d="M130.2,81.4h-0.1c-1-0.1-1.3-1.2-1.4-2v-0.2c-0.5-2.5-3.7-3.6-6.1-4.2l-5-1.2c-1.7-0.5-3.4-0.7-5.1-0.7
	c-1.6,0.1-3.1,1-4,2.4c-0.1,0.3-0.2,0.5-0.3,0.8c-0.2,0.9-0.8,1.6-1.5,2.1c-1.3,0.5-2.7-0.1-3.3-1.4c-0.4-1.1-0.6-2.2-0.4-3.3l1,0.1
	c-0.1,0.9,0,1.9,0.3,2.8c0.3,0.7,1.1,1.1,1.9,0.9c0.5-0.4,0.9-0.9,1-1.6c0.1-0.3,0.2-0.6,0.4-0.9c1-1.7,2.8-2.8,4.8-2.9
	c1.8-0.1,3.7,0.2,5.5,0.7l5,1.2c2.6,0.7,6.2,1.9,6.8,5v0.2c0.1,0.5,0.2,1.2,0.5,1.2c0.1,0,0.4-0.1,0.6-0.4s0.4-0.5,0.6-0.8
	c0.3-0.5,0.8-1,1.2-1.4c0.9-0.8,2.2-0.9,3.1-0.1l-0.7,0.7c-0.6-0.4-1.3-0.3-1.8,0.2c-0.4,0.4-0.7,0.8-1,1.2
	c-0.2,0.3-0.4,0.6-0.7,0.8C131.2,81.1,130.8,81.4,130.2,81.4z"/>
<path class="st0" d="M135.2,78.4l-0.3-0.1c-0.4-0.2-0.8-0.6-0.9-1l0.9-0.4c0,0.1,0.1,0.2,0.1,0.2c0.1-0.2,0.2-0.4,0.2-0.6
	c0-0.6-0.1-1.1-0.5-1.6c-0.8-0.7-1.8-1.3-2.9-1.5C127,72,122,70.8,117,70c-2-0.4-4-0.6-6-0.4c-1.9,0.1-3.8,1-5.1,2.4
	c-0.3,0.4-0.6,0.9-0.9,1.3c-0.2,0.4-0.5,0.8-0.8,1.2l-0.8-0.6c0.3-0.3,0.5-0.7,0.7-1.1c0.3-0.5,0.6-1,1-1.4c1.5-1.6,3.5-2.7,5.7-2.8
	c2.1-0.1,4.2,0,6.3,0.4c5.1,0.9,10.1,2,15,3.5c1.3,0.3,2.4,0.9,3.4,1.8c0.5,0.6,0.8,1.5,0.8,2.3c0,0.6-0.3,1.2-0.8,1.6L135.2,78.4z"
	/>
<path class="st0" d="M113.3,77.6c-1.2-0.1-2.2-0.9-2.4-2.1c-0.2-1.1,0.1-2.2,0.9-3.1l0.8,0.7c-0.5,0.6-0.8,1.4-0.7,2.2
	c0.1,0.7,0.8,1.2,1.5,1.3c0.4,0,0.7-0.2,0.9-0.5c0.2-0.2,0.2-0.5,0.1-0.8l0.9-0.3c0.2,0.6,0.1,1.2-0.3,1.7
	C114.7,77.2,114.1,77.6,113.3,77.6L113.3,77.6z"/>
<path class="st0" d="M114.4,77.8c-0.7,0-1.3-0.3-1.7-0.9l0.9-0.4c0.2,0.3,0.5,0.4,0.8,0.4c0.5,0,0.9-0.3,1.2-0.7c0.3-1,0-2-0.8-2.6
	l0.7-0.8c1.2,0.9,1.6,2.4,1.1,3.8C116.1,77.3,115.3,77.8,114.4,77.8L114.4,77.8z"/>
<path class="st0" d="M113.5,77.4l-0.3-0.3c-0.8-0.9-1-2.2-0.3-3.2l0.1-0.3l0.5,0.2c1,0.5,1.4,1.7,0.9,2.7c-0.1,0.3-0.4,0.6-0.6,0.7
	L113.5,77.4z"/>
<path class="st0" d="M113.9,78.1c-1.4,0-2.7-0.5-3.8-1.5l0.7-0.7c1.2,1.1,3,1.5,4.6,0.9l0.4,0.9C115.2,78,114.6,78.1,113.9,78.1z"/>
<path class="st0" d="M116.8,78.6l-0.1-1l4.4-0.6c-0.5-0.3-1-0.6-1.5-1l-2.3-2.1l2.8,1.2l0.2-0.3l1.6,0.9c1.2,0.6,2.4,1.2,3.7,1.7
	l-0.3,0.9c-0.5-0.2-1-0.4-1.4-0.6l-0.4,0.5l-0.3-0.2c-0.5-0.2-1.1-0.2-1.7-0.1L116.8,78.6z"/>
<rect x="111.4" y="77.8" transform="matrix(0.3798 -0.9251 0.9251 0.3798 -4.5578 153.1345)" class="st0" width="1" height="4.3"/>
<path class="st0" d="M106.5,89.2c-1.3-3.3-1.8-6.9-1.5-10.5l1,0.1c-0.3,3.4,0.2,6.8,1.4,10L106.5,89.2z"/>
<path class="st0" d="M108.3,95l-1.4-3.6l-0.6-1.6l0.9-0.4l0.6,1.6c0.5,1.2,0.9,2.4,1.4,3.6L108.3,95z"/>
<path class="st0" d="M101.1,101.1c-0.5,0-0.9-0.2-1.3-0.5l0.6-0.8c0.6,0.5,1.2,0.3,2.2-0.7l0.7,0.7C102.8,100.5,102,101,101.1,101.1
	z"/>
<path class="st0" d="M119.8,92.7c-1.2,0-2.5-0.2-3.7-0.5l-4.5-0.9c-1.5-0.3-3.2-0.7-4.1-2.1l0.8-0.5c0.7,1,2,1.4,3.4,1.6l4.5,0.9
	c1.7,0.4,3.4,0.5,5.1,0.3c1.9-0.5,3.5-1.7,4.6-3.3c1.1-1.7,2-3.5,2.7-5.3l0.9,0.4c-0.7,2-1.7,3.8-2.8,5.6c-1.2,1.8-3,3.1-5.1,3.7
	C121,92.6,120.4,92.7,119.8,92.7z"/>
<path class="st0" d="M66.2,65.3c-0.7,0-1.4-0.2-2-0.6c-1.7-0.9-3.2-2.2-4.2-3.9l0.8-0.5c0.9,1.5,2.3,2.7,3.9,3.5
	c0.5,0.3,1.1,0.4,1.7,0.4c0.5,0,0.9-0.3,1.1-0.8l1,0.2c-0.3,0.9-1.1,1.5-2,1.6L66.2,65.3z"/>
<path class="st0" d="M67.7,62.9c-1.9,0-3.7-1-4.8-2.6l0.8-0.5c1,1.4,2.6,2.2,4.3,2.1c-0.5-0.8-1.1-1.5-1.7-2.2l-0.2-1l0.7,0.2
	c1.8,0.5,3.4,1.4,4.7,2.7l0.4-0.7c0.3,0.3,0.5,0.7,0.3,1.1c-0.1,0.4-0.6,0.7-1,0.6H71l0-0.1c-0.8-0.8-1.7-1.5-2.7-2
	c0.4,0.5,0.7,1,1,1.5l0.3,0.6L69,62.8C68.6,62.9,68.2,62.9,67.7,62.9z M71.3,61.7C71.3,61.7,71.3,61.7,71.3,61.7L71.3,61.7
	C71.3,61.6,71.3,61.6,71.3,61.7L71.3,61.7z"/>
<rect x="75" y="55.1" transform="matrix(0.1075 -0.9942 0.9942 0.1075 7.8512 128.581)" class="st0" width="1" height="9.6"/>
<path class="st0" d="M88,64.2l-1.9-0.6l0.3-1l0.7,0.2c-0.1-0.3-0.3-0.5-0.6-0.7c-0.6-0.3-1.2-0.6-1.8-0.7L81,60.5l0.2-1l3.6,0.9
	c0.8,0.1,1.5,0.4,2.2,0.8c0.8,0.5,1.2,1.4,1.1,2.4L88,64.2z"/>
<path class="st0" d="M79.8,63c-2.1,0-4.1-0.7-5.8-2.1l0.7-0.8c2,1.7,4.7,2.2,7.2,1.5l0.3,1C81.4,62.9,80.6,63,79.8,63z"/>
<path class="st0" d="M87.4,65.3c-0.8-0.6-1.5-1.2-2.2-1.9v0.3l-0.6-0.2c-1.4-0.4-2.6-1.1-3.7-2l0.7-0.8c0.8,0.7,1.8,1.2,2.8,1.6
	l0.2-1.4l0.7,0.9c0.7,1,1.6,1.9,2.7,2.6L87.4,65.3z"/>
<path class="st0" d="M108.4,67.2c-0.6,0-1.2-0.2-1.7-0.5c-0.8-0.5-1.3-1.3-1.3-2.3h1c0.1,1.1,1.1,1.9,2.3,1.8c0.1,0,0.2,0,0.3-0.1
	l0.3,0.9C109,67.2,108.7,67.3,108.4,67.2z"/>
<path class="st0" d="M107.3,69.1c-1.8,0-3.4-1.1-4-2.8l1-0.3c0.5,1.4,1.9,2.3,3.4,2.1l0.1,1C107.7,69.1,107.5,69.1,107.3,69.1z"/>
<path class="st0" d="M109.2,65.6c-0.5,0-1-0.2-1.4-0.5c-0.6-0.4-0.9-1.2-0.8-1.9l1,0.2c0,0.4,0.1,0.7,0.4,0.9c0.3,0.3,0.6,0.4,1,0.2
	h0.1c2.7-0.2,5.4-0.6,8.1-1.2l0.2,1c-2.7,0.6-5.4,1-8.2,1.2C109.5,65.6,109.4,65.6,109.2,65.6z"/>
<path class="st0" d="M125.4,68.4l-0.1-2.9h1v0.9c0.4-0.5,0.8-1.1,1-1.7c-0.8-0.4-1.5-1.1-1.9-1.9l-0.1-0.2c-0.2-0.6-0.8-1-1.4-0.9
	l-2.7-0.3c-3.5-0.2-7.1,0.4-10.4,1.8l-0.4-0.9c3.4-1.4,7.1-2,10.8-1.8l2.7,0.3c0.5,0,1,0.2,1.4,0.4c0.3,0.3,0.6,0.6,0.8,1l0.1,0.2
	c0.3,0.5,0.7,1,1.3,1.3l0.1-0.4l2.1,1.4l-0.9,0.5c-0.2,0-0.3-0.1-0.5-0.1c-0.4,1.1-1.1,2.1-2,2.8L125.4,68.4z"/>
<path class="st0" d="M123.3,66.6l-0.9-0.4c0.3-0.7,0.4-1.4,0.5-2.1l-2.7,2c-0.7,0.5-1.1,0.4-1.4,0.2c-0.3-0.2-0.4-0.6-0.4-1
	c0-0.3,0-0.5,0-0.8L118,65c-0.2,0.3-0.5,0.5-0.9,0.6c-0.3,0-0.6-0.1-0.8-0.4c-0.2-0.2-0.2-0.5,0-0.8l0.8,0.6c0.1-0.1,0.1-0.2,0-0.3
	c0,0-0.1-0.1-0.2-0.1c0.1-0.1,0.1-0.1,0.2-0.2l2.6-3.6l0.4,0.6c-0.4,1.2-0.7,2.5-0.8,3.9v0.1l0.2-0.1l4.3-3.2v0.9c0,0.2,0,0.4,0,0.5
	l0.8-1.5l0.9,0.5C124.8,63.9,124.1,65.2,123.3,66.6z"/>
<path class="st0" d="M100,106.7c-0.5,0-0.9-0.2-1.3-0.5c-0.4-0.1-0.7-0.3-0.7-0.7c-0.3-1.1-0.6-2.2-0.6-3.3h1c0,0.9,0.2,1.9,0.5,2.8
	h0.1c0.2,0.1,0.4,0.3,0.5,0.5c0.2,0.2,0.6,0.3,0.9,0.2l0.2,1C100.3,106.7,100.2,106.7,100,106.7z"/>
<path class="st0" d="M85.1,115.1h-0.7c-1.5,0-2.9-0.4-4.3-1.1l0.5-0.9c1.4,0.8,3,1.1,4.6,1l0.1-0.1c0.2-0.3,0.5-0.4,0.8-0.4l5.2-2.3
	l1.5-1.1c1.4-1,3.1-1.6,4.8-1.7H98l0.1,0.3c0,0.1,0.1,0.3,0.2,0.4h0.1h-0.1c0.4,0.4,1,0.6,1.6,0.6c0.9-0.1,1.7-0.4,2.4-0.8
	c0.4-0.3,0.8-0.4,1.2-0.4l0,0c0.4,0,0.8,0.2,1.1,0.4c2.4,1.3,4.6,2.9,6.7,4.6l-0.6,0.8c-2.1-1.7-4.3-3.2-6.6-4.5
	c-0.2-0.1-0.4-0.2-0.6-0.2l0,0c-0.3,0-0.5,0.1-0.7,0.3c-0.9,0.6-1.9,0.9-2.9,1c-1,0-1.9-0.4-2.5-1.2l-10.2,4.5l0.3,0.5l-0.7,0.2
	C86.3,115,85.7,115.1,85.1,115.1L85.1,115.1z"/>
<path class="st0" d="M99.8,114.5c-0.8,0-1.5-0.2-2.1-0.6l-1.1-0.7l-2.1,1.3l0.1-1c0.1-0.5,0.2-1,0.5-1.4c-1,0.5-2.1,0.8-3.2,1.1
	l-0.3-1c1.8-0.5,3.6-1.2,5.2-2.2l0.2-0.1l0.5,0.9l-0.2,0.1c-0.6,0.4-1.1,1-1.4,1.6l1.1-0.7c0.6-0.5,1.2-0.9,1.9-1.1l0.4,0.9
	l-1.4,0.8l3.1,0.9l0.2-0.1l0.2-0.1c0.2-0.1,0.4-0.2,0.6-0.3c0.6-0.2,1.1-0.2,1.7-0.1l5.6,0.6l-0.7,0.7c-0.2,0.2-0.6,0.3-0.9,0.3
	c-0.2,0-0.4-0.1-0.5-0.2l-3.7-0.4c-0.4-0.1-0.8-0.1-1.2,0l0,0l-1.2,0.6C100.7,114.4,100.3,114.5,99.8,114.5z"/>
<path class="st0" d="M103.5,119.5c-0.9,0-1.8-0.1-2.7-0.2l-5.3-0.7l0,0l-1,0.3c-2.3-0.6-4.1-2.4-4.8-4.7l1-0.3
	c0.4,1.4,1.3,2.6,2.5,3.3l7.7,1c2.3,0.3,4.9,0.5,6.5-1c0.3-0.3,0.5-0.6,0.7-0.8c0.2-0.3,0.5-0.6,0.8-0.9l0.7,0.7
	c-0.3,0.3-0.5,0.5-0.7,0.8c-0.3,0.4-0.5,0.7-0.8,1C106.8,119.1,105.2,119.6,103.5,119.5z"/>
<path class="st0" d="M47,89.8h-0.1h-0.3v-0.1c-0.3-0.2-0.4-0.6-0.3-1l-2.7-9.6c-0.2-1.1-0.7-2.1-1.3-3.1c-0.1-0.1-0.2-0.3-0.3-0.4
	c-0.2-0.3-0.4-0.6-0.6-0.9c-0.4-0.8-0.4-1.7-0.1-2.5l0.1-0.3l0.3-0.1c1.2-0.2,2.4,0.6,2.8,1.8l-1,0.3c-0.2-0.6-0.7-1-1.3-1
	c-0.1,0.5-0.1,1,0.2,1.4c0.1,0.3,0.3,0.5,0.5,0.8c0.1,0.1,0.2,0.3,0.3,0.4c0.6,1,1.1,2.2,1.4,3.4l2.6,9.3h0.1c0.4,0.1,0.6,0.6,0.5,1
	C47.6,89.5,47.3,89.7,47,89.8z M46.9,89.1L46.9,89.1L46.9,89.1L46.9,89.1z"/>
<path class="st0" d="M46,93.8c-0.2-1.6,0-3.2,0.6-4.7l0.9,0.4c-0.5,1.1-0.7,2.3-0.6,3.4l0,0v0.8L46,93.8z"/>
<path class="st0" d="M47.4,98.4L46.8,98c-1.1-0.7-2-1.7-2.6-2.9c-0.6-0.9-0.7-2-0.3-3c0.2-0.4,0.6-0.6,1.1-0.7
	c0.2-0.1,0.4-0.2,0.5-0.1c0.2,0,0.4,0.1,0.6,0.3c0.3,0.2,0.6,0.5,0.6,0.9c0.9,1.6,1.2,3.4,0.8,5.2L47.4,98.4z M44.7,93.7
	c0.1,0.4,0.2,0.7,0.4,1c0.4,0.8,1,1.4,1.7,2c0.1-1.5-0.3-3-1.2-4.2l0,0c0,0.1,0,0.1,0,0.2C45.4,93,45.2,93.5,44.7,93.7z"/>
<rect x="48.5" y="90.8" transform="matrix(0.9647 -0.2632 0.2632 0.9647 -23.2125 16.2412)" class="st0" width="1" height="7.9"/>
<path class="st0" d="M78,137.4c-7.3-5.6-14.1-11.9-20.3-18.6c-1.2-1.1-2.2-2.4-3-3.8c-0.8-1.6-1.4-3.3-1.7-5.1l-3.7-14.3l1-0.2
	l3.7,14.3c0.4,1.7,0.9,3.3,1.7,4.8c0.8,1.3,1.7,2.5,2.8,3.6c6.2,6.7,13,12.9,20.2,18.5L78,137.4z"/>
<path class="st0" d="M134.7,71.8l-1-0.1c0.4-3.2,0.5-6.5,0.1-9.8l1-0.1C135.2,65.2,135.1,68.5,134.7,71.8z"/>
<path class="st0" d="M129.6,102.2l-0.9-0.3c0.5-1.6,0.8-3.2,0.8-4.9c0-0.4,0.1-0.8,0.1-1.2c0.5-5.4,2.1-10.7,3.7-15.8l1,0.3
	c-1.6,5-3.2,10.2-3.7,15.6l-0.1,1.3C130.5,98.8,130.2,100.5,129.6,102.2z"/>
<rect x="116.3" y="108.9" transform="matrix(0.3027 -0.9531 0.9531 0.3027 -15.8315 197.1868)" class="st0" width="21.1" height="1"/>
<path class="st0" d="M107.5,138.6l-0.3-1c2.2-0.8,4.1-2.2,5.3-4.2c0.8-1.2,1.6-2.5,2.3-3.8c0.4-0.8,0.9-1.7,1.4-2.4
	c1.8-3,4.1-5.6,6.7-7.8l0.6,0.8c-2.6,2.1-4.8,4.7-6.5,7.6c-0.5,0.8-0.9,1.6-1.4,2.4c-0.7,1.3-1.5,2.6-2.3,3.9
	C112,136.1,110,137.8,107.5,138.6z"/>
<path class="st0" d="M105.5,140.3c-2.2-0.7-4.4-1.2-6.7-1.3c-1.9-0.1-3.7-0.1-5.6,0.1c-1.7,0.1-3.4,0.1-5.2,0.1
	c-3.9-0.2-7.8-1.1-11.4-2.8l0.4-0.9c3.5,1.6,7.2,2.5,11,2.7c1.7,0.1,3.4,0,5.1-0.1c1.9-0.1,3.8-0.1,5.7,0c2.4,0.1,4.7,0.6,7,1.4
	L105.5,140.3z"/>
<path class="st0" d="M54.9,136.2l-1-0.2c1.4-6.3,2.1-12.7,2-19.1h1C57,123.4,56.3,129.9,54.9,136.2z"/>
<path class="st0" d="M80.2,161.3H80c-0.3-0.1-0.5-0.3-0.6-0.6v-0.2c-9.7-7-18.5-15.2-26-24.5c-1.3-1.4-2.2-3.1-2.7-4.9
	c-0.3-2,0.5-4.3,2.6-5l0.3,0.9c-1.5,0.5-2.2,2.4-1.9,3.9c0.4,1.7,1.3,3.2,2.5,4.5c7.5,9.3,16.3,17.6,26,24.5c0.7,0.5,0.5,1,0.4,1.1
	C80.6,161.1,80.4,161.3,80.2,161.3z M80,160.5h0.4c0,0,0-0.3-0.2-0.3c-0.1,0-0.2,0-0.3,0.1L80,160.5z"/>
<path class="st0" d="M51.5,177.5l-0.5-0.6c-3.7-5-4-11.6-4.2-16.9l-1.3-27.8c-0.1-1.6-0.1-3.3,1-4.6c1.3-1.7,3.7-1.7,5.9-1.5l-0.1,1
	c-2-0.2-4-0.2-5.1,1.1c-0.8,1-0.8,2.4-0.7,3.9l1.3,27.8c0.2,5,0.5,11.1,3.6,15.8c2.2-3.4,5.2-6.1,8.8-8c0.8-0.6,1.8-1.1,2.8-1.3
	c2.9-1.2,6.1-1.6,9.3-1.2l0.4,0.1v0.4c-0.1,0.8-0.7,1.3-1.5,1.3c-0.3,0-0.5-0.1-0.8-0.3l0.6-0.6c-1.8-0.1-3.7,0-5.4,0.5l-2.1,0.7
	l-0.9,0.4c-0.8,0.4-1.6,0.9-2.4,1.4l-3.7,2.6l0.8-0.9c-2.2,1.7-4,3.8-5.5,6.1L51.5,177.5z"/>
<path class="st0" d="M111.4,157.7l-0.9-1.8l0.4-0.2c0.4-6.4,0.4-12.9-0.2-19.3l1-0.1c0.6,6.7,0.6,13.4,0.1,20.1L111.4,157.7z"/>
<path class="st0" d="M130.1,167.9l-0.6,0.8c-0.9-0.4-1.6-1-2.2-1.8l0.7-0.5c-0.3-0.6-0.5-1.1-0.8-1.7c-0.5-1.5-1.3-2.9-2.3-4.1
	c-1.7-1.8-4.2-2.5-6.6-3s-4.8-0.8-6.9,0.1l-1.6,1.9l-0.1-1.2c0-0.6,0.3-1.1,1.1-1.5c2.4-1.2,5.3-0.8,7.7-0.3s5.3,1.3,7.1,3.3
	c1.1,1.3,2,2.8,2.5,4.4C128.7,165.5,129.3,166.7,130.1,167.9L130.1,167.9z"/>
<path class="st0" d="M126.3,175.4v-1c-0.2-4.6-1.6-9.1-3.9-13.1l0.9-0.5c2.2,3.8,3.6,8,4,12.4c0.4-0.8,0.7-1.7,0.8-2.6
	c1-5.4,1.3-10.9,0.9-16.4l1-0.1c0.4,5.6,0.1,11.2-0.9,16.6c-0.1,1.5-0.8,2.9-1.9,4L126.3,175.4z"/>
<path class="st0" d="M129,157c-4.9-7.1-10.2-14-15.6-20.7l0.8-0.6c5.5,6.7,10.8,13.7,15.7,20.8L129,157z"/>
<path class="st0" d="M146.3,160.3c-6.8-9.3-17.6-14.9-28.3-19.6l0.4-0.9c10.8,4.7,21.8,10.4,28.8,19.9L146.3,160.3z"/>
<path class="st0" d="M0.2,157.2l-0.2-1c2.5-0.6,4.9-1.5,7.1-2.6c2.6-1.4,5-2.9,7.4-4.6l1.2-0.8c9.9-6.7,20.4-12.6,30.6-18.2l0.5,0.9
	c-10.2,5.7-20.7,11.6-30.5,18.2l-1.2,0.8c-2.4,1.7-4.9,3.3-7.5,4.6C5.2,155.7,2.8,156.6,0.2,157.2z"/>
<path class="st0" d="M77.4,186.5h-0.7c-1.2,0-2.4-0.3-3.5-0.8c-1.2-0.6-1.9-1.8-2-3.1c0-0.6,0.2-1.2,0.4-1.8
	c0.1-0.2,0.2-0.5,0.2-0.7c0.6-2.1-0.2-4.2-1.2-6.5c-0.7-1.5-1.2-3.1-1.5-4.8c-0.5-4.7,2.9-8.9,7.6-9.4c0.4,0,0.9-0.1,1.3,0
	c2.1,0.2,4.2,0.9,5.9,2.2c1,0.6,1.8,1.5,2.4,2.5l-0.9,0.4c-0.5-0.9-1.2-1.6-2.1-2.1c-1.6-1.2-3.4-1.9-5.4-2c-4.1-0.2-7.7,3-7.8,7.2
	c0,0.4,0,0.8,0,1.1c0.3,1.6,0.7,3.1,1.4,4.5c1,2.3,1.9,4.7,1.2,7.1c-0.1,0.3-0.2,0.5-0.3,0.8c-0.2,0.5-0.3,0.9-0.4,1.4
	c0.1,1,0.6,1.8,1.5,2.2c0.9,0.4,2,0.7,3,0.7c1.8,0.2,3.6-0.2,5.1-1.1c0.5-0.4,1-0.8,1.3-1.4c0-0.2,0-0.5,0.1-0.7l1.1-2.5l0,0
	c0.2,0.5,0.3,1.1,0.3,1.7c0.2,0,0.4,0,0.6,0.1c0.8,0.5,1.3,1.2,1.4,2.1c0,0.1,0,0.1,0,0.2c0.1-0.2,0.1-0.4,0.1-0.6
	c-0.5-2.9-1.1-5.8-1.9-8.7c-1.1,0.6-2.4,0.5-3.3-0.2l-0.5-0.4l0.5-0.4l0.3-0.3c-1.6,0.1-3.1-0.3-4.4-1.1l-0.6-0.4l0.6-0.4
	c1.7-1.4,3.6-2.5,5.6-3.4c-0.2-0.7,0.2-1.4,0.8-1.7c0.7-0.3,1.4,0,1.8,0.6c0.1,0.3,0.2,0.7,0,1l-0.1,0.2l-0.2,0.1
	c-0.3,0.1-0.7,0.2-1,0.4l0,0c0.3,0.9,0.6,1.7,0.8,2.6l0.5-0.3l0.5,0.8c-0.2,0.2-0.5,0.3-0.7,0.5c1,3.6,1.9,7.2,2.5,10.8
	c0.1,0.6-0.1,1.2-0.5,1.7c-0.3,0.2-0.6,0.2-0.9,0.1c-0.4-0.2-0.6-0.6-0.6-1c-0.1-0.6-0.3-1.2-0.8-1.4c-0.1,0-0.2,0-0.3,0
	c-0.1,0.2-0.2,0.5-0.3,0.7l-0.5,0.9l0,0c-0.3,0.4-0.8,0.8-1.2,1.2C80.9,186.2,79.2,186.6,77.4,186.5z M82.6,173.9
	c0.6,0.2,1.3,0.1,1.9-0.3l-0.2-0.9C83.7,173.2,83.2,173.5,82.6,173.9z M78.5,171.8c1.7,0.7,3.7,0.7,5.5,0l0,0
	c-0.3-0.9-0.6-1.9-0.9-2.8C81.4,169.8,79.9,170.7,78.5,171.8L78.5,171.8z M84.1,167.2L84.1,167.2c-0.2,0.1-0.2,0.2-0.3,0.4l0.6-0.2
	l-0.1-0.1C84.3,167.2,84.2,167.2,84.1,167.2L84.1,167.2z"/>
<path class="st0" d="M100.2,184.3c-0.4,0-0.8,0-1.2-0.1c-0.4-0.1-0.9-0.2-1.3-0.4c-0.4-0.1-0.8-0.2-1.2-0.3
	c-1.1-0.2-2.2-0.2-3.3-0.1c-1.4,0.2-2.9,0.1-4.3-0.3c-0.4-0.1-0.8-0.4-1.1-0.8c-0.2-0.3-0.3-0.7-0.3-1.1l-1-6.8
	c-0.5-3.7-1.2-8.3,0.6-12.3l0.9,0.4c-1.7,3.7-1,8.1-0.5,11.7l1,6.8c0,0.2,0.1,0.5,0.2,0.7c0.2,0.2,0.4,0.3,0.6,0.4
	c1.3,0.4,2.6,0.4,3.9,0.2c1.2-0.2,2.4-0.1,3.6,0.1c0.4,0.1,0.8,0.2,1.2,0.4c0.4,0.1,0.8,0.3,1.2,0.4c2.2,0.4,4.5-0.7,5.5-2.7
	l0.9,0.4C104.6,183,102.5,184.2,100.2,184.3z"/>
<path class="st0" d="M87.1,166.8c-0.2,0-0.4-0.1-0.6-0.1c-0.5-0.3-0.8-0.8-0.8-1.3c0.1-0.7,0.6-1.4,1.2-1.8c1.8-1.6,4.1-2.7,6.5-3.1
	c1.9-0.1,3.7,0.1,5.5,0.7c2.6,0.7,5.1,1.8,7.4,3.1l-0.5,0.9c-2.3-1.3-4.7-2.3-7.2-3c-1.6-0.5-3.4-0.8-5.1-0.6
	c-2.2,0.4-4.3,1.4-6,2.9c-0.4,0.3-0.8,0.7-0.8,1.1c0,0.2,0.1,0.3,0.2,0.4l0.7,0.8C87.5,166.8,87.3,166.8,87.1,166.8z"/>
<path class="st0" d="M106.6,182.4L106.6,182.4c-0.1-0.5-0.2-0.9-0.3-1.4c-0.1-0.1-0.1-0.2-0.2-0.4l0.1-0.1c-0.4-2.6-0.2-5.2,0.3-7.7
	c0.1-0.4,0.2-0.8,0.3-1.1c0.5-1.5,0.7-3.1,0.4-4.6c-0.6-1.6-1.6-3-2.9-4.1l0.7-0.7c1.2,1.2,2.7,2.6,3.1,4.5c0.3,1.7,0.1,3.5-0.4,5.1
	c-0.1,0.4-0.2,0.7-0.3,1.1c-0.6,2.5-0.7,5.1-0.3,7.6c0.2,0.5,0.3,1,0.3,1.6L106.6,182.4z"/>
<path class="st0" d="M109.1,182.4c-0.2,0-0.4-0.1-0.5-0.2c-0.3-0.2-0.4-0.6-0.2-0.9l0.2,0.1c-0.6-2.8-1-5.7-1.1-8.6v-0.7l0.7,0.1
	c0.2,0,0.4,0.1,0.6,0.2c0-1.3,0.1-2.5,0.2-3.8l1,0.1c-0.4,4.3-0.3,8.6,0.3,12.8l-0.4,0.1v0.2l-0.2,0.2
	C109.4,182.3,109.2,182.4,109.1,182.4z M109.1,181.6L109.1,181.6c0-0.1,0-0.2-0.1-0.3c0,0-0.1,0-0.1,0.1L109.1,181.6z"/>
<path class="st0" d="M118.3,188.8c-0.2,0-0.4,0-0.6-0.1c-4.2-1.6-8-4.2-11.1-7.5l0.7-0.7c2.6,2.8,5.7,5,9.1,6.6h1.5
	c1.5,0.1,3-0.2,4.3-0.9c0.7-0.5,1.1-1.1,1.3-1.9c0.1-0.5,0-1-0.3-1.4l0.8-0.6c0.5,0.6,0.7,1.4,0.5,2.2c-0.2,1.1-0.8,2-1.7,2.6
	c-1.1,0.6-2.3,1-3.5,1c0,0.2-0.1,0.4-0.2,0.5C118.8,188.7,118.6,188.8,118.3,188.8z"/>
<path class="st0" d="M109.1,165.4l-0.8-0.7c3.3-3.5,8.3-4.7,12.8-3l-0.4,0.9C116.6,161.1,112.1,162.2,109.1,165.4z"/>
<path class="st0" d="M123.3,187l-0.7-0.7c1.1-1.1,1.2-2.9,1.2-4.6c0.1-3.9,0-7.8-0.2-11.6c-0.2-3.2-0.6-6.9-3-9.1l0.7-0.7
	c2.7,2.5,3.1,6.4,3.2,9.8c0.2,3.9,0.3,7.8,0.2,11.7C124.8,183.6,124.7,185.6,123.3,187z"/>
<path class="st0" d="M41.5,62.8v-0.4c-0.5-4.1-1.6-8-3.3-11.8l-0.7-1.4l0.6,0.3l-1.8-2.8c-1-1.5-1.8-3.1-2.2-4.8
	c-0.4-2.6,0.6-5.2,1.5-7.3c1-2.4,2.3-4.9,4.8-5.3l0.2,1c-2,0.3-3.2,2.6-4.1,4.7s-1.8,4.5-1.5,6.8c0.4,1.6,1.1,3.1,2.1,4.5l4,6.3
	l-1.4-0.9c0.9,2.1,1.5,4.3,2.1,6.5H42l0.5,4.1c0,0.1,0,0.3,0,0.4L41.5,62.8z"/>
<path class="st0" d="M52.5,28.7c-0.2,0-0.3,0-0.5-0.1c-0.3-0.1-0.5-0.5-0.5-0.9l1,0.1c0-0.1,0-0.1-0.1-0.2c0,0,0-0.1-0.1-0.2
	c-0.2-0.2-0.5-0.3-0.7-0.3c-4-1-8.2-1-12.2,0l-2.3,0.6l2.6-2.1L40,26c3.9-0.9,8-0.8,11.9,0.2c0.4,0.1,0.9,0.3,1.2,0.6
	c0.5,0.4,0.5,1.2,0.1,1.7C53,28.6,52.7,28.7,52.5,28.7z"/>
<path class="st0" d="M52.1,27.4c-2.5-3.1-5.1-6.1-7.9-8.9l-1-1.1l1.5,0.2c2.1,0.3,3.9,1.5,5,3.3l-0.8,0.5c-0.6-1-1.6-1.8-2.6-2.3
	c2.3,2.4,4.5,5,6.6,7.5L52.1,27.4z"/>
<path class="st0" d="M59.8,11.4l-1-0.1c0.5-4.2,2.5-8.1,5.6-11L64.7,0L65,0.3c1.1,1,0.4,2.8,0.2,3.4L63,9.3l0.5,0.4
	c-0.3,0.4-0.8,0.6-1.3,0.4l-0.5-0.2l2.6-6.6c0.3-0.6,0.4-1.2,0.3-1.9C62,4.2,60.3,7.7,59.8,11.4z"/>
<path class="st0" d="M64.9,8.4l-0.7-0.7c2.1-1.9,4.3-3.7,6.7-5.2l0.6,0.8L69.7,5l-0.3-0.3C67.8,5.8,66.3,7.1,64.9,8.4z"/>
<path class="st0" d="M82.4,6l-0.3-1l12.2-3.2l-0.8-0.5l3.8-0.1l1.7-0.7l-0.7,0.7h2l-2.6,0.7l-0.3,0.4c-1,1-1.7,2.2-2.3,3.5l-0.9-0.4
	c0.4-1,1-2,1.7-2.8h-0.3L82.4,6z"/>
<path class="st0" d="M133.4,73.6H133c-0.2,0-0.4-0.2-0.5-0.4l-0.1-0.3l0.3-0.2l0,0c0.6-1.4,1-2.9,1.2-4.5h-0.1
	c-0.5-3.3,0.3-6.7,2.1-9.5l0.9,0.5c-1,2.2-1.5,4.6-1.6,7c-0.1,2.5-0.7,4.9-1.7,7.2L133.4,73.6z M132.8,72.7L133,73l0.1-0.4
	C133,72.6,132.9,72.6,132.8,72.7L132.8,72.7z"/>
<path class="st0" d="M91.7,118.1c-2-0.8-3.5-2.4-4.2-4.4l1-0.3c0.6,1.7,1.8,3.1,3.5,3.8L91.7,118.1z"/>
<path class="st0" d="M97.5,115c-2.8-0.5-5.6-0.8-8.4-0.9v-1c2.9,0.1,5.7,0.4,8.6,0.9L97.5,115z"/>
<path class="st0" d="M99.5,115.4c-0.3,0-0.5-0.1-0.7-0.3l-0.9-0.3l0.1-0.4l-0.1-0.1l-1.6-0.6l0.4-0.9l3.1,1.2c0.8,0.1,1.7,0,2.5-0.2
	l0.2,1c-0.7,0.2-1.5,0.2-2.3,0.2v0.2l-0.6-0.1L99.5,115.4z"/>
<path class="st0" d="M96,99.4l-2,0.4c-3.2-0.2-5.7-2.9-5.5-6.2c0,0,0,0,0,0l1,0.1c-0.1,1.3,0.4,2.5,1.2,3.5c0.6,0.7,1.5,1.2,2.4,1.5
	c0.1-0.2,0.2-0.3,0.4-0.4c0.3-0.1,0.6,0,0.8,0.2l-0.5,0.3H94v0.3c0-0.1,0-0.2,0-0.3c0-0.1,0-0.1,0.1,0L96,99.4z"/>
<path class="st0" d="M95.1,99.6l-0.3-1c0.9-0.3,1.9-0.4,2.9-0.3c0-0.3-0.1-0.5-0.3-0.7c-0.4-0.3-0.8-0.5-1.3-0.6
	c-0.6-0.2-1.2-0.1-1.8,0.1c-0.4,0.2-0.7,0.7-0.5,1.2l-0.9,0.4c-0.4-1,0.1-2.1,1-2.5c0.8-0.4,1.6-0.4,2.5-0.2
	c0.7,0.1,1.3,0.4,1.8,0.8c0.6,0.6,0.8,1.5,0.3,2.2l-0.2,0.2H98C97,99.2,96,99.3,95.1,99.6z"/>
<path class="st0" d="M99.4,101c-0.5,0-1-0.1-1.5-0.3l0.3-0.9c1,0.4,2.1,0.3,3-0.3l0.5,0.9C101.1,100.8,100.3,101,99.4,101z"/>
<path class="st0" d="M98.4,100.5l-0.1-1c0.9-0.1,1.8-0.1,2.8-0.1c0.6,0,1.1,0,1.7,0v1c-0.6,0-1.1,0-1.7,0
	C100.1,100.4,99.3,100.5,98.4,100.5z"/>
<rect x="47" y="74.5" transform="matrix(0.9871 -0.1604 0.1604 0.9871 -12.7093 8.6912)" class="st0" width="1" height="17.2"/>
<path class="st0" d="M63.9,60c-0.8,0-1.5-0.2-2.2-0.6l0.5-0.9c1.7,1,3.9,0.1,6-0.9l0.4,0.9C67.2,59.4,65.6,59.9,63.9,60z"/>
<path class="st0" d="M74.4,60.1c-1.5-0.8-3.2-1.4-4.9-1.8l0.2-1c1.8,0.4,3.6,1,5.2,1.8L74.4,60.1z"/>
<path class="st0" d="M77.1,63.5c-1.2-0.3-2.5-0.4-3.8-0.2l-0.1-1c1.4-0.1,2.8,0,4.1,0.3L77.1,63.5z"/>
<rect x="111.4" y="65.1" class="st0" width="6.8" height="1"/>
<path class="st0" d="M53.8,43.5c-1.1-2.4-2-4.9-2.5-7.5l1-0.2c0.5,2.5,1.3,4.9,2.4,7.3L53.8,43.5z"/>
<path class="st0" d="M45.9,63.5l6.5-22.3l1,0.3l-6.3,21.3h0.2c0,0.4-0.3,0.8-0.6,1.1L45.9,63.5z"/>
<rect x="47.1" y="58.2" class="st0" width="1" height="8.7"/>
<rect x="133.1" y="40.4" transform="matrix(0.9372 -0.3487 0.3487 0.9372 -7.4449 49.4435)" class="st0" width="1" height="9.9"/>
<polygon class="st0" points="138.4,59.2 138.4,59.2 138.5,59 138.3,58.4 139.2,58 "/>
<path class="st0" d="M139.3,63c-3.2-4.8-5.4-10.3-6.3-16l1-0.2c0.9,5.6,2.9,10.8,6.1,15.5L139.3,63z"/>
<path class="st0" d="M134.6,61.8c-1.4-2.7-2.6-5.6-3.5-8.5l1-0.3c0.9,2.9,2,5.7,3.4,8.3L134.6,61.8z"/>
<path class="st0" d="M102.9,139.7l-0.1-1c1.5-0.1,2.9-0.5,4.3-1.2l0.4,0.9C106.1,139.2,104.6,139.6,102.9,139.7z"/>
<rect x="107.5" y="92.6" class="st0" width="1" height="0.6"/>
<path class="st0" d="M101.8,100.7h-0.4l0.1-1c3.1,0.2,5.9-2.2,6-5.4c0-0.4,0-0.7,0-1.1l1-0.1c0.5,3.7-2.1,7-5.8,7.5
	C102.4,100.7,102.2,100.7,101.8,100.7L101.8,100.7z"/>
<path class="st0" d="M178.9,59.8l-1-0.1c0.2-3.5,2-6.9,5.4-10.6c0.9-1,2-2,2.9-3c1.8-1.7,3.5-3.6,5.1-5.6c1.3-1.9,2.4-3.9,3.2-6.1
	c0.5-1.4,1-3.1,0.5-4.6l0.9-0.4c0.7,1.8,0.1,3.8-0.5,5.3c-0.8,2.2-2,4.4-3.4,6.3c-1.6,2-3.3,3.9-5.2,5.7c-1,1-2,2-2.9,3
	C180.8,53.3,179.1,56.6,178.9,59.8z"/>
<path class="st0" d="M178,52.1c-1.7-11.7,3.3-23.4,13.1-30.1c1.5-1,3.8-2.3,6.2-2.2l-0.1,1c-2.1-0.1-4.2,1.1-5.6,2
	c-9.3,6.6-14.2,17.8-12.6,29.1L178,52.1z"/>
<path class="st0" d="M157,170.6l-0.9-0.4c7.2-17.3,11.7-35.6,13.4-54.3c0.5-5.8,0.8-11.7,1.1-17.4l1-22.6c0-3.9,0.5-7.8,1.3-11.6
	c1.4-5.6,4.4-10.7,7.4-15.7c3.2-5.3,6.4-10.8,7.6-16.9l1,0.2c-1.1,6.3-4.5,11.9-7.7,17.3c-2.9,4.9-5.9,9.9-7.2,15.4
	c-0.8,3.7-1.2,7.6-1.3,11.4l-1,22.6c-0.3,5.7-0.5,11.7-1.1,17.5C168.8,134.7,164.3,153.2,157,170.6z"/>
<path class="st0" d="M164.3,81.6l-1-0.2c0.7-3.9,0.8-7.9,0.4-11.8l-0.1-0.6c-0.3-1.5-0.3-3.1,0-4.7c0.5-1.6,1.3-3,2.4-4.3l10.8-14.6
	l0.8,0.6l-10.8,14.6c-1,1.2-1.7,2.5-2.2,3.9c-0.3,1.4-0.3,2.9,0,4.3l0.1,0.6C165.2,73.5,165,77.6,164.3,81.6z"/>
<path class="st0" d="M168,87.3l-0.9-0.5c1.1-2,1.4-4.5,0.8-7.9c-0.1-0.9-0.3-1.7-0.5-2.6c-0.4-1.9-0.7-3.8-0.8-5.8
	c0-4.4,1.8-9,5.4-13.8l0.8,0.6c-3.5,4.6-5.2,9-5.2,13.2c0.1,1.9,0.3,3.7,0.7,5.6c0.2,0.9,0.4,1.8,0.5,2.6
	C169.5,82.4,169.2,85.2,168,87.3z"/>
<path class="st0" d="M167.9,106.2h-1c0.1-5.2-0.5-10.3-1.8-15.3l1-0.2C167.4,95.7,168.1,101,167.9,106.2z"/>
<path class="st0" d="M176.1,181.4l-1-0.1c1.2-18.5,1.4-37.1,0.7-55.7h1C177.5,144.2,177.3,162.8,176.1,181.4z"/>
<path class="st0" d="M182.5,185.9l-1-0.2c4.1-16.7,4.4-34.2,0.7-51l1-0.2C186.9,151.5,186.6,169.1,182.5,185.9z"/>
<path class="st0" d="M179.4,72c-0.4-5.5-0.6-10.8,1.5-15.5c0.5-1.1,1-2.1,1.6-3.1c1.2-2.1,2.3-4,2.5-6.2l1,0.1
	c-0.2,2.5-1.4,4.6-2.6,6.7c-0.6,1-1.1,2-1.6,3c-2,4.5-1.8,9.6-1.4,15L179.4,72z"/>
<path class="st0" d="M180.5,79.6c-0.8-2.7-1.1-5.5-1-8.2h1c-0.1,2.7,0.3,5.3,1,7.9L180.5,79.6z"/>
<path class="st0" d="M180.4,79.9c-1.1,0-2.2-0.3-3.1-1l0.6-0.8c1.1,0.8,2.5,1,3.7,0.7l0.3,1C181.4,79.9,180.9,79.9,180.4,79.9z"/>
<path class="st0" d="M182.9,78.6c-1,0-2-0.3-2.9-0.9l0.6-0.8c1.3,0.9,3.1,1,4.4,0.1l0.6,0.8C184.8,78.3,183.8,78.6,182.9,78.6z"/>
<path class="st0" d="M186.5,77c-1.3,0-2.5-0.2-3.7-0.7l0.3-0.9c1.1,0.4,2.2,0.6,3.4,0.6L186.5,77z"/>
<rect x="186.3" y="74.5" transform="matrix(0.1728 -0.985 0.985 0.1728 80.2817 246.3385)" class="st0" width="1" height="1.8"/>
<path class="st0" d="M183.5,78.1l-0.6-0.8c1.7-1.3,3.8-2.1,5.9-2.3l0.1,1C187,76.1,185.1,76.9,183.5,78.1z"/>
<path class="st0" d="M193.3,76.9c-0.9-0.7-1.8-1.2-2.9-1.6c-1-0.3-2-0.1-2.8,0.5l-0.7-0.7c1-0.9,2.4-1.2,3.7-0.8
	c1.2,0.4,2.2,1,3.2,1.7L193.3,76.9z"/>
<path class="st0" d="M184.9,82.6l-0.3-1c1.3-0.4,2.7-0.5,4.1-0.4l-0.1,1C187.3,82.1,186,82.2,184.9,82.6z"/>
<path class="st0" d="M186,82.2c-1.3,0-2.6-0.5-3.6-1.3l0.6-0.8c1.1,0.9,2.6,1.3,4,1l0.2,1C186.8,82.2,186.4,82.2,186,82.2z"/>
<path class="st0" d="M189.2,80.8c-0.5,0-1-0.2-1.4-0.6c-0.7-0.5-0.9-1.4-0.7-2.2l1,0.3c-0.1,0.4,0.1,0.8,0.4,1.1
	c0.3,0.3,0.7,0.4,1.1,0.2l0.5,0.9C189.8,80.7,189.5,80.8,189.2,80.8z"/>
<path class="st0" d="M189.9,81c-0.4,0-0.7-0.1-1-0.3l0.6-0.8c0.2,0.1,0.5,0.2,0.7,0.1c0.5-0.1,0.7-0.6,0.6-1.1
	c-0.1-0.3-0.3-0.5-0.6-0.6l0.2-1c0.5,0.1,1,0.5,1.2,1c0.2,0.5,0.2,1.1,0,1.6c-0.2,0.5-0.7,0.9-1.2,1C190.3,80.9,190.1,81,189.9,81z"
	/>
<path class="st0" d="M190.6,80.8c-0.5,0-1-0.2-1.3-0.5c-0.7-0.5-1-1.4-0.8-2.2l1,0.3c-0.1,0.4,0.1,0.9,0.4,1.1
	c0.3,0.3,0.8,0.4,1.2,0.2l0.6,0.8C191.3,80.7,190.9,80.8,190.6,80.8z"/>
<path class="st0" d="M192.1,80.4l-0.5-0.8c0.3-0.3,0.4-0.8,0.1-1.1c-0.1-0.1-0.2-0.1-0.2-0.2l0.3-1c0.9,0.4,1.4,1.4,1,2.4
	C192.5,79.8,192.3,80.1,192.1,80.4L192.1,80.4z"/>
<path class="st0" d="M192.4,80.9L192,80c0.8-0.4,1.6-0.8,2.3-1.3c-0.8-0.2-1.5-0.5-2.1-1l0.6-0.8c0.8,0.6,1.8,0.9,2.8,0.8l1.6-0.2
	l-1.2,1C194.9,79.5,193.7,80.3,192.4,80.9z"/>
<rect x="191.6" y="81.3" transform="matrix(0.8309 -0.5564 0.5564 0.8309 -12.865 121.3473)" class="st0" width="3.2" height="1"/>
<path class="st0" d="M179.9,72.2l-0.4-0.9c2.4-1.2,4.9-2.2,7.5-2.9l0.3,1C184.7,70.1,182.2,71,179.9,72.2z"/>
<path class="st0" d="M181.3,71.1l-0.6-0.8c0.7-0.5,1.6-0.8,2.5-0.9l4.4-0.8l0.2,1l-4.4,0.8C182.6,70.4,181.9,70.7,181.3,71.1z"/>
<path class="st0" d="M185.2,70.9c-1.1,0-2.2-0.1-3.2-0.3l0.2-1c1.5,0.3,3.1,0.4,4.6,0.2l0.1,1C186.3,70.9,185.8,70.9,185.2,70.9z"/>
<path class="st0" d="M189.5,70.5h-0.3c-1.9-0.1-3.7-0.5-5.5-1.2l0.3-0.9c1.7,0.6,3.5,1,5.2,1.1c0.2,0,0.3,0,0.5,0c0,0,0,0.1,0.1,0.1
	l0.3-0.9c0.3,0.1,0.5,0.3,0.5,0.6c0.1,0.4-0.1,0.7-0.3,0.9C190.1,70.4,189.8,70.5,189.5,70.5z"/>
<rect x="188.8" y="67.3" transform="matrix(0.3512 -0.9363 0.9363 0.3512 58.1854 222.0596)" class="st0" width="1" height="3.5"/>
<path class="st0" d="M192.3,69.2c-0.7-0.6-1.6-0.9-2.4-0.7l-0.2-1c1.2-0.2,2.4,0.2,3.3,1L192.3,69.2z"/>
<rect x="192.7" y="66.3" transform="matrix(0.5291 -0.8486 0.8486 0.5291 32.8099 196.2188)" class="st0" width="1" height="4.6"/>
<path class="st0" d="M209.5,67.1c-0.9,0-1.9-0.2-2.7-0.6l0.5-0.9c1.2,0.6,2.5,0.7,3.8,0.3l0.3,1C210.8,67,210.2,67.1,209.5,67.1z"/>
<path class="st0" d="M213.3,66.9c-1.7-0.1-3.3-0.4-4.9-1l0.3-0.9c1.5,0.5,3.1,0.8,4.6,0.9L213.3,66.9z"/>
<path class="st0" d="M214,65.4c-1.1,0-2.2-0.3-3.2-0.8l0.5-0.9c1.4,0.8,3.1,0.9,4.7,0.4l0.4,0.9C215.6,65.3,214.8,65.4,214,65.4z"/>
<path class="st0" d="M217,64.7h-0.2c-0.2,0-0.3-0.1-0.5-0.2c-1.1,0-2.2,0-3.3,0v-1c1,0,2.1,0,3.1,0l0.1-0.1c0.6-0.3,1.3-0.4,2-0.5
	l0,0l-0.2-1l4.3,0.7l-0.2,1l-2-0.3l0.5,0.6h-1.1c-0.3,0-0.7,0-1,0l-0.8,0.6C217.5,64.6,217.3,64.7,217,64.7z"/>
<rect x="222.8" y="60.3" transform="matrix(0.1595 -0.9872 0.9872 0.1595 126.3901 272.6313)" class="st0" width="1" height="3.6"/>
<rect x="225.4" y="59.8" transform="matrix(0.3761 -0.9266 0.9266 0.3761 82.8203 248.5173)" class="st0" width="1" height="5.9"/>
<path class="st0" d="M200.5,99.3c-0.5,0-1-0.1-1.5-0.3c-1.1-0.6-2-1.6-2.4-2.8c-0.4-1.8-0.4-3.6,0-5.4l0.1-0.4
	c0.9-5.8,0.8-11.6-0.2-17.4l1-0.2c1,5.8,1.1,11.8,0.2,17.7l-0.1,0.4c-0.4,1.6-0.4,3.4,0,5c0.3,1,1,1.7,1.9,2.2
	c0.5,0.3,1.2,0.3,1.8,0.2l0.4,0.9C201.2,99.3,200.9,99.4,200.5,99.3z"/>
<path class="st0" d="M202.7,99.3c-1.1-0.1-2.1-0.5-3-1.1l0.5-0.8c1.6,1,2.7,1.2,3.4,0.6c0.2-0.2,0.5-0.5,0.6-0.8
	c0.1-0.1,0.1-0.2,0.2-0.3c0.8-1.2,2.1-2,3.5-2.2c1.5-0.1,3,0.9,3.4,2.4l-1,0.2c-0.3-1-1.3-1.7-2.4-1.6c-1.1,0.1-2.1,0.8-2.7,1.7
	c-0.1,0.1-0.1,0.2-0.2,0.3c-0.2,0.4-0.5,0.7-0.8,1C203.8,99.1,203.3,99.3,202.7,99.3z"/>
<path class="st0" d="M211.4,97.2l-0.3-1c1.7-0.6,2.6-2.4,2-4c-0.3-1-1.2-1.8-2.2-2.1l0.2-1c2.2,0.6,3.6,2.9,3,5.1
	c-0.4,1.3-1.4,2.4-2.7,2.9L211.4,97.2z"/>
<path class="st0" d="M211.7,78.4c-0.9,0-1.8-0.5-2.4-1.2c-0.7-0.7-0.9-1.7-0.7-2.7l1,0.2c-0.1,0.7,0.1,1.3,0.5,1.8
	c0.4,0.5,1.1,0.8,1.7,0.8l0.1,1L211.7,78.4z"/>
<path class="st0" d="M211.9,75.3l-0.2-1c1.2-0.4,2.3-1.1,3.2-2.1c0.5-0.5,1-0.9,1.5-1.3c3.5-2.7,8.3-1.9,11.5,0l0.3,0.2
	c0.7,0.6,1.6,0.9,2.6,0.9l0.2,1c-1.2,0.1-2.4-0.3-3.3-1l-0.3-0.2c-3.4-2.1-7.7-2.1-10.4-0.1c-0.5,0.4-1,0.8-1.4,1.2
	C214.6,74.1,213.3,74.9,211.9,75.3z"/>
<path class="st0" d="M215.2,71.7l-0.8-0.6c2.5-3.1,6.8-4.1,10.4-2.4l-0.4,0.9C221.2,68.1,217.4,69,215.2,71.7z"/>
<path class="st0" d="M213.2,71.6c-1.5,0-2.8-0.6-3.8-1.7l0.8-0.7c1.4,1.5,3.6,1.8,5.3,0.7l0.6,0.8C215.2,71.3,214.2,71.6,213.2,71.6
	z"/>
<path class="st0" d="M217.6,70.6c-1.4,0-2.8-0.4-4-1.3l0.6-0.8c1.3,0.9,2.8,1.3,4.4,1l0.2,1C218.4,70.6,218,70.6,217.6,70.6z"/>
<rect x="219.4" y="67.3" transform="matrix(0.3512 -0.9363 0.9363 0.3512 78.4458 250.3472)" class="st0" width="1" height="2.5"/>
<path class="st0" d="M225.9,69.8l-0.2-1c1-0.2,1.8-0.8,2.3-1.6l0.9,0.5C228.2,68.8,227.1,69.6,225.9,69.8z"/>
<path class="st0" d="M221.3,75.5c-1.6-0.1-2.8-1.4-2.7-3c0-0.2,0.1-0.5,0.1-0.7l0.9,0.4c-0.3,1,0.3,2,1.3,2.3c0.1,0,0.3,0.1,0.4,0.1
	L221.3,75.5L221.3,75.5z"/>
<path class="st0" d="M221.8,75.1c-0.4,0-0.9-0.1-1.3-0.3l0.5-0.9c0.8,0.5,1.8,0.2,2.3-0.6c0.5-0.8,0.2-1.8-0.6-2.3l0.6-0.8
	c1.2,0.8,1.6,2.4,0.8,3.6C223.6,74.6,222.7,75,221.8,75.1L221.8,75.1z"/>
<path class="st0" d="M222.4,75.2c-0.6,0-1.3-0.3-1.7-0.7c-0.6-0.6-0.9-1.5-0.7-2.3l1,0.3c-0.1,0.5,0.1,1,0.4,1.3
	c0.3,0.4,0.8,0.5,1.3,0.4l0.3,1C222.8,75.2,222.6,75.2,222.4,75.2z"/>
<path class="st0" d="M221.8,75.8l-0.2-1c0.5-0.1,0.8-0.5,0.9-1c0.2-0.5,0-1-0.3-1.3l0.6-0.8c1,0.9,1,2.5,0.1,3.5
	C222.6,75.5,222.2,75.7,221.8,75.8L221.8,75.8z"/>
<rect x="221.2" y="72.8" transform="matrix(0.9109 -0.4126 0.4126 0.9109 -10.7576 98.0768)" class="st0" width="1" height="2.3"/>
<rect x="220.7" y="74.1" transform="matrix(0.3409 -0.9401 0.9401 0.3409 75.6981 257.0715)" class="st0" width="1" height="0.9"/>
<path class="st0" d="M219.8,77.1c-1.9-0.1-3.8-0.3-5.7-0.7l0.2-1c1.8,0.4,3.7,0.6,5.5,0.7L219.8,77.1z"/>
<path class="st0" d="M220.7,77.1l-0.3-0.9c1.9-0.8,3.9-1.3,6-1.6c0.1,0,0.1,0,0.2,0l0.3,1c-0.1,0.1-0.3,0.1-0.4,0.1
	C224.5,75.9,222.5,76.4,220.7,77.1z"/>
<path class="st0" d="M198.1,112l-0.6-0.8c0.5-0.4,1-0.9,1.4-1.4c0.4-0.6,1-1.1,1.5-1.6c0.8-0.6,1.9-0.9,2.9-0.6
	c0.3,0.1,0.7,0.2,0.9,0.5c1.2-1.8,3.9-2.2,5.9-1.6c1.3,0.4,2.5,0.9,3.7,1.6c0.6,0.3,1.2,0.7,1.9,1c0.2-0.1,0.4-0.1,0.6-0.1l4.1,0.2
	v1l-3.8-0.2l-0.3,0.2c-0.2,0.2-0.6,0.2-0.8,0c-0.1-0.1-0.1-0.1-0.2-0.2c-0.7-0.3-1.3-0.7-2-1c-1.1-0.7-2.2-1.2-3.4-1.6
	c-1.9-0.5-4.4,0-5.1,1.7l-0.4,1.1l-0.5-1.1c-0.1-0.3-0.4-0.5-0.8-0.6c-0.8-0.2-1.6,0-2.2,0.5c-0.5,0.4-1,0.9-1.4,1.4
	C199.2,111,198.7,111.5,198.1,112z"/>
<path class="st0" d="M206.8,111.8l-0.6-0.3c-0.3-0.2-0.7-0.3-1-0.5l0.8,0.7l-1.7-0.4c-1.8-0.4-3.4-1.1-4.9-2.1l1-0.5
	c0.8,0.5,1.6,0.9,2.5,1.2c-0.2-0.3-0.4-0.6-0.6-0.8l-0.4-1.5l1.1,0.8c0.9,0.7,1.8,1.3,2.8,1.8l0.2-0.6c0.6,0.3,0.9,0.9,0.8,1.5
	L206.8,111.8z"/>
<rect x="204.9" y="109.2" transform="matrix(0.9485 -0.3166 0.3166 0.9485 -24.1605 70.6801)" class="st0" width="1" height="0.9"/>
<path class="st0" d="M203.9,112.4c-1.6,0-3.2-0.3-4.7-0.8l0.3-1c1.7,0.6,3.6,0.8,5.4,0.7l0.1,1C204.6,112.4,204.2,112.4,203.9,112.4
	z"/>
<path class="st0" d="M209.1,111.9c-0.1,0-0.2,0-0.3-0.1h-2.6v-1h2.2c0.2-0.4,0.7-0.6,1.1-0.6c1.1,0,2.2-0.1,3.3,0v1c-1,0-2,0-2.9,0
	l-0.1,0.2c-0.1,0.2-0.3,0.4-0.5,0.4L209.1,111.9z"/>
<path class="st0" d="M204.4,116.1c-0.3,0-0.6,0-0.9,0c-2.6-0.4-4.7-2.1-5.5-4.6l1-0.3c0.7,2.1,2.5,3.6,4.7,3.9
	c0.9,0.1,1.9,0,2.8-0.1l4.2-0.5c0.7-0.1,1.4-0.2,2.1-0.4c0.6-0.3,1.1-0.6,1.6-1.1c0.6-0.6,1.4-1,2.1-1.3l0.3,0.9
	c-0.7,0.3-1.3,0.7-1.8,1.1c-0.6,0.5-1.2,0.9-1.8,1.2c-0.8,0.3-1.6,0.5-2.4,0.5l-4.2,0.5C205.8,116.1,205.1,116.1,204.4,116.1z"/>
<path class="st0" d="M208.8,118.4l-0.3-1l0,0c-1,0.1-2,0-3-0.1l0.2-1c1.8,0.3,3.7,0.2,5.4-0.5l2.1-0.7l-1.6,1.6l0,0
	c0.8-0.1,1.5-0.2,2.3-0.2l0.1,1C212.2,117.5,210.4,117.8,208.8,118.4z"/>
<path class="st0" d="M195.4,124.6c-7.5-8-12.1-18.3-13-29.2c-0.1-1.3-0.2-2.7-0.2-4.1c-0.2-3.8-0.3-7.7-1.7-11.2l0.9-0.4
	c1.5,3.6,1.6,7.6,1.8,11.5c0.1,1.3,0.1,2.7,0.2,4c0.9,10.7,5.4,20.8,12.7,28.7L195.4,124.6z"/>
<path class="st0" d="M209.6,134.6c-4.2-0.7-9.3-1.9-12-5.9c-0.9-1.5-1.6-3.1-2.1-4.8c-0.4-1.3-0.9-2.5-1.5-3.7l0.9-0.5
	c0.6,1.3,1.1,2.6,1.5,3.9c0.4,1.6,1.1,3.1,1.9,4.5c2.5,3.7,7.4,4.9,11.3,5.5L209.6,134.6z"/>
<path class="st0" d="M250.8,107.1l-0.8-0.6c1.8-2.3,2.7-5.2,2.8-8.1c0-3-0.3-6-1-8.9l-3-15.8l1-0.2l3,15.8c0.7,3,1,6,1.1,9.1
	C253.8,101.5,252.7,104.6,250.8,107.1z"/>
<path class="st0" d="M215.4,133.7l-0.4-0.9c2.2-0.9,4.3-2,6.3-3.2c0.4-0.2,0.8-0.5,1.1-0.7c0.9-0.6,1.8-1.2,2.8-1.7s2.2-1,3.2-1.5
	c0.6-0.2,1.1-0.5,1.6-0.7c8-3.7,14.7-9.8,18.9-17.6l0.9,0.5c-4.4,7.9-11.2,14.2-19.4,18l-1.7,0.7c-1.1,0.4-2.1,0.9-3.2,1.5
	c-1,0.5-1.8,1.1-2.7,1.6c-0.4,0.2-0.8,0.5-1.1,0.7C219.7,131.7,217.6,132.8,215.4,133.7z"/>
<path class="st0" d="M251.3,75.3h-1c0-2.3,0.7-4.5,2.1-6.3c0.4-0.7,1.1-1.2,1.8-1.4c0.9-0.3,1.9,0.2,2.3,1.1l-0.9,0.3
	c-0.2-0.4-0.7-0.6-1.1-0.4c-0.5,0.2-1,0.6-1.3,1.1C252,71.2,251.3,73.2,251.3,75.3z"/>
<path class="st0" d="M260.2,79.5l-1-0.1c0.2-2.4-0.1-4.9-0.8-7.3c-0.1-1-0.5-1.9-1-2.8c-0.5-0.7-1.4-1.1-2.2-0.9l-0.3-1
	c1.3-0.3,2.6,0.2,3.3,1.3c0.6,1,1,2,1.2,3.1C260.2,74.3,260.4,76.9,260.2,79.5z"/>
<path class="st0" d="M251.9,79.7c0-2.9,0.7-5.7,2.1-8.2l0.9,0.5c-1.3,2.4-2,5-2,7.8H251.9z"/>
<path class="st0" d="M258.6,83.1h-1c0.1-1.2-0.8-2.3-1.7-3.4c-0.3-0.4-0.7-0.8-1-1.3c-1.2-1.7-1.7-3.8-1.4-5.8l1,0.1
	c-0.2,1.8,0.2,3.6,1.3,5.1c0.3,0.4,0.6,0.8,1,1.2C257.6,80.2,258.6,81.4,258.6,83.1z"/>
<path class="st0" d="M260.8,86.8c-2.1-3.6-2.9-7.8-2.3-11.9l1,0.2c-0.6,3.9,0.2,7.9,2.2,11.3L260.8,86.8z"/>
<path class="st0" d="M257.8,91.5c-0.4,0-0.7-0.2-1-0.5l0.6-0.5c-0.4-1.3-1-2.5-1.9-3.5c0-0.1-0.1-0.1-0.1-0.1h-0.1
	c-1,0.7-1.5,1.9-1.4,3.1l-1,0.2c-0.2-1.6,0.5-3.2,1.8-4.1c0.2-0.1,0.4-0.2,0.6-0.2c0.4,0,0.7,0.2,0.9,0.5c1.1,1.3,1.9,2.8,2.2,4.5
	l0.1,0.5l-0.5,0.1C258,91.5,257.9,91.5,257.8,91.5z"/>
<path class="st0" d="M258.9,100.8c-0.8-0.1-1.4-0.5-1.7-1.3c-0.2-0.7-0.3-1.4-0.2-2.1l0.1-2.2l-0.4,0.1l0,0v0.3
	c0,0.6-0.3,1.1-0.9,1.3l-0.3-0.9c-1.1-0.2-2.2-0.5-3.1-1c-0.8-0.4-1.4-1-1.7-1.8c-0.1-0.4-0.1-0.9,0.1-1.3c0.2-0.4,0.6-0.7,1-0.8
	c1-0.1,2,0.1,2.9,0.7c0.9,0.5,1.7,1.2,2.4,2l0,0l-0.1-0.3c-0.5-1.8-1.6-3.3-3.1-4.4l0.6-0.8c1.2,0.8,2.2,1.9,2.9,3.2v-0.2l0-0.8
	l0.1,0.2c0.1-0.3,0.2-0.5,0.4-0.7c0.4-0.3,1-0.3,1.4-0.1c2.4,0.9,4,3.1,4.3,5.6l0.1,0.6L263,96c-1.1-0.1-2.1-0.5-2.9-1.2
	c0.3,1,0.4,1.9,0.5,2.9c0.1,1.7-0.4,2.8-1.4,3C259.1,100.8,259,100.8,258.9,100.8z M258.1,93.9l-0.2,3.5c-0.1,0.6,0,1.1,0.1,1.7
	c0.1,0.4,0.5,0.7,0.9,0.6c0.6-0.1,0.7-1.1,0.6-1.9c0-1.6-0.5-3.2-1.3-4.5c0,0.2-0.1,0.3-0.1,0.5L258.1,93.9z M252.3,92
	c-0.1,0-0.2,0-0.3,0c-0.2,0-0.3,0.1-0.4,0.3c-0.1,0.2-0.1,0.3,0,0.5c0.2,0.5,0.7,1,1.2,1.2c1.1,0.6,2.2,0.9,3.4,1h0.4l-0.1-0.2
	c-0.6-0.9-1.4-1.7-2.4-2.3C253.6,92.2,252.9,92,252.3,92z M258.8,92.3c1,1.1,2.3,2,3.7,2.5c-0.5-1.9-1.8-3.4-3.6-4.1
	c-0.4-0.1-0.5-0.1-0.5-0.1s-0.1,0.3-0.1,0.4l-0.2,1l0,0c0.1,0.2,0.2,0.4,0.2,0.7L258.8,92.3z"/>
<path class="st0" d="M258.8,90.6L258,90c1.4-1.7,2-3.9,1.7-6l1-0.2C261,86.3,260.4,88.7,258.8,90.6z"/>
<path class="st0" d="M260.2,133.6c-5.3-8.1-8.5-17.4-9.4-27.1l1-0.1c0.9,9.5,4,18.6,9.2,26.6L260.2,133.6z"/>
<path class="st0" d="M213.6,148.9c-0.7-5.1-2.7-9.9-5.7-14.1l0.8-0.6c3.1,4.3,5.1,9.3,5.9,14.5L213.6,148.9z"/>
<path class="st0" d="M213.2,169.7c-1.9-2.1-2.8-4.9-3.6-7.3l-1.4-4.2c-0.8-2-1.3-4.1-1.6-6.3c-0.4-4,0.8-7.9,2.1-11.6l0.9,0.3
	c-1.3,3.6-2.4,7.3-2,11.1c0.3,2.1,0.8,4.1,1.5,6.1l1.4,4.2c0.8,2.4,1.6,5,3.4,7L213.2,169.7z"/>
<path class="st0" d="M222,171.7c-1.2,0-2.4-0.1-3.6-0.4l0.2-1c4.8,1.1,10.4-0.3,15.3-3.9c4.5-3.3,8-7.8,11.3-12.1l6.6-8.5
	c2.9-3.8,5.9-7.6,7.7-12.1l0.9,0.4c-1.9,4.6-4.9,8.5-7.9,12.3L246,155c-3.4,4.4-6.9,8.9-11.5,12.3C230.9,170,226.5,171.6,222,171.7z
	"/>
<path class="st0" d="M216.4,172.1c-0.3,0-0.6-0.2-0.8-0.4l0.5-0.3c-1.9-1.8-4.1-3.2-6.6-4.1c-0.8-0.2-1.4-0.7-1.8-1.4
	c-0.1-0.3-0.1-0.7,0.1-1c0.2-0.3,0.4-0.5,0.8-0.6c0.7-0.1,1.4,0.1,2,0.5c2.2,1.4,4.3,2.9,6.4,4.5h0.1l0,0l0.2,0.2l2.3,1.8l-2.8-1
	c-0.2-0.1-0.4-0.2-0.5-0.4c-2-1.6-4.1-3-6.2-4.4c-0.3-0.2-0.8-0.4-1.2-0.4c-0.1,0-0.1,0.1-0.1,0.1c0,0.1,0,0.1,0,0.2
	c0.3,0.4,0.7,0.7,1.2,0.8c2.7,1,5.2,2.6,7.2,4.6l0.2,0.2v0.3c-0.1,0.4-0.4,0.6-0.7,0.7L216.4,172.1z M216.4,171.1L216.4,171.1
	c-0.1,0-0.1,0.1-0.1,0.1h0.1l0.1-0.1C216.4,171.2,216.4,171.1,216.4,171.1z"/>
<path class="st0" d="M210.7,174.4c-0.5,0-1-0.1-1.5-0.4c-0.4-0.2-0.7-0.6-0.8-1.1c-0.1-0.3,0-0.7,0.1-1c-0.6-0.1-1.1-0.5-1.5-1
	c-0.2-0.4-0.3-0.9-0.1-1.3c0.3-1,1.4-1.4,3-1.1c1.9,0.3,3.7,0.9,5.4,1.6L215,171c-1.7-0.7-3.4-1.2-5.2-1.5c-0.7-0.1-1.7-0.1-1.9,0.5
	c0,0.2,0,0.3,0.1,0.5c0.2,0.3,0.5,0.5,0.9,0.6c0.2,0,0.5,0,0.7,0c0.5-0.3,1.1-0.4,1.6-0.4h0.3c2.2-0.3,4.4,0.3,6.1,1.7l0.9,0.7
	l-1.2,0.1c-1.3,0.1-2.5-0.2-3.6-0.8c-0.7-0.3-1.5-0.6-2.2-0.8h-0.2l-0.6,0.1c-0.3,0.1-0.6,0.1-0.9,0.2c-0.1,0.1-0.2,0.1-0.3,0.2
	c-0.1,0.1-0.2,0.4-0.2,0.6c0,0.2,0.1,0.3,0.3,0.4c0.6,0.3,1.3,0.3,2,0.1c1.1-0.3,2.8-0.8,3.7,0.3l-0.8,0.6c-0.5-0.6-1.6-0.4-2.7,0
	C211.6,174.3,211.1,174.4,210.7,174.4z"/>
<rect x="213" y="173.9" transform="matrix(0.9992 -4.030618e-02 4.030618e-02 0.9992 -6.9839 8.7486)" class="st0" width="1" height="7.4"/>
<path class="st0" d="M213.2,183c-0.2,0-0.4-0.1-0.6-0.2l-0.2-0.1l-0.1-0.2c-0.3-0.8-0.2-1.7,0.2-2.5l-0.3-0.7l0.9-0.4l0.1,0.2
	l0.2,0.1c0.5,0.1,0.8,0.5,0.9,1l-0.7,0.1l0.7,1.9l-0.2,0.2C213.9,182.8,213.6,183,213.2,183z M213.2,181.9c0,0,0,0.1,0,0.1l0,0
	V181.9z"/>
<path class="st0" d="M219.9,182c-0.5,0-1-0.2-1.3-0.6c-0.5-0.6-0.7-1.3-0.8-2l-1.2-6.8h0.1c0-0.1,0-0.1,0-0.2H216l0.1-0.1l-0.6-0.5
	c2.6-3.3,7.4-3.8,10.7-1.2l0.6,0.5l-0.7,0.3c-1.1,0.4-2.3,0.3-3.4-0.1c-0.5-0.1-0.9-0.3-1.4-0.3c-0.9-0.1-1.8,0.1-2.6,0.5
	c2.9,0.4,5.6,1.7,7.6,3.8c0.7,0.6,1.1,1.5,0.9,2.4c-0.1,0.5-0.5,0.9-0.9,1.1c-0.6,0.3-1.3,0.3-1.9,0.1c-0.8-0.4-1.6-1-2.1-1.8
	l-0.1-0.1c-1.3-1.5-2.7-3-4.2-4.2c0.2,0.6,0.6,1.2,1.1,1.6c1.4,1.6,2.3,3.6,2.4,5.7c0.1,0.5,0,0.9-0.3,1.3c-0.2,0.3-0.6,0.5-1,0.5
	L219.9,182z M218.1,175.1l0.7,4.2c0,0.5,0.2,1,0.5,1.5c0.2,0.2,0.4,0.2,0.6,0.2c0.1,0,0.2,0,0.3-0.1c0.1-0.2,0.1-0.4,0.1-0.7
	C220.2,178.3,219.4,176.5,218.1,175.1L218.1,175.1z M219.2,172.7c1.3,1.2,2.5,2.4,3.6,3.8l0.1,0.1c0.4,0.6,1,1.1,1.7,1.5
	c0.4,0.2,0.8,0.2,1.1,0c0.2-0.1,0.4-0.3,0.4-0.5c0.1-0.4-0.1-0.9-0.7-1.5C223.8,174.3,221.6,173.1,219.2,172.7L219.2,172.7z
	 M220.9,170.1h0.4c0.5,0.1,1.1,0.2,1.6,0.4c0.5,0.2,1.1,0.3,1.7,0.4C223.4,170.2,222.1,169.9,220.9,170.1L220.9,170.1z"/>
<path class="st0" d="M205.5,19.3l-1,0c0-0.6,0.2-1.1,0.4-1.6c1.2-2.9,3.3-5.3,6-6.9c2.6-1.5,5.5-2.6,8.5-3.3
	c1.4-0.4,2.1,0.1,2.4,0.6l-0.9,0.5c-0.2-0.3-0.9-0.2-1.2-0.1c-2.9,0.6-5.7,1.7-8.2,3.2c-2.5,1.5-4.5,3.7-5.6,6.4
	C205.7,18.4,205.5,18.9,205.5,19.3z"/>
<path class="st0" d="M255.7,29.3c-4.3-5.2-8.8-10.6-14.3-14.7c-6.1-4.5-12.8-6.6-18.9-6l-0.1-1c6.3-0.6,13.3,1.6,19.6,6.2
	c5.6,4.1,10.1,9.6,14.5,14.8L255.7,29.3z"/>
<path class="st0" d="M274.9,62.6c-1.3-6.2-2.6-11.7-5.5-16.5c-2-3.1-4.4-6-7-8.5l-9-9.5c-1.6-1.8-3.4-3.4-5.4-4.6
	c-2.4-1.2-4.9-1.9-7.6-2.2c-2.7-0.3-5.4-1.1-7.8-2.3l0.5-0.9c2.4,1.1,4.9,1.9,7.5,2.2c2.7,0.3,5.4,1.1,7.9,2.3
	c2.1,1.3,4,2.9,5.6,4.8l9,9.5c2.7,2.6,5.1,5.6,7.2,8.7c3,4.9,4.3,10.5,5.6,16.8L274.9,62.6z"/>
<path class="st0" d="M285.3,90.7l-0.9-0.4c1.4-3.2,1.2-6.8,0.8-9.6c-0.4-3.1-1.1-7.6-3.6-11.1c-1.6-2-3.4-3.8-5.5-5.4
	c-2.1-1.6-4-3.4-5.6-5.5c-1.3-1.9-2.3-4-3.2-6.1c-0.4-0.9-0.7-1.7-1.1-2.6c-1.7-3.6-3.6-5.8-6-6.8l0.4-0.9c2.6,1.1,4.7,3.5,6.5,7.3
	c0.4,0.9,0.8,1.7,1.2,2.6c0.8,2.1,1.8,4.1,3.1,5.9c1.6,2,3.4,3.7,5.4,5.3c2.1,1.6,4,3.5,5.7,5.6c2.6,3.7,3.4,8.4,3.8,11.6
	C286.5,83.5,286.7,87.3,285.3,90.7z"/>
<path class="st0" d="M221.5,53.1c-3.3-2.6-6.3-5.6-8.9-8.9c-2.7-3.4-4-7.7-3.9-12l1,0.1c-0.1,4.1,1.2,8.1,3.7,11.3
	c2.6,3.2,5.5,6.2,8.7,8.7L221.5,53.1z"/>
<path class="st0" d="M232.9,60.5c-4-0.6-7.1-3.5-9.6-6.3c-5.4-5.8-9.6-12.5-12.5-19.8l0.9-0.4c2.9,7.2,7,13.8,12.3,19.5
	c2.4,2.7,5.3,5.4,9,6L232.9,60.5z"/>
<path class="st0" d="M239.1,55.2c-1.8-3.2-4.8-5.7-8.3-6.9c-1.5-0.5-3-0.8-4.5-1.1c-0.9-0.2-1.8-0.3-2.7-0.6
	c-7.4-1.8-13.7-6.6-17.4-13.3l0.9-0.5c3.6,6.4,9.6,11,16.8,12.8c0.9,0.2,1.8,0.4,2.7,0.6c1.6,0.3,3.1,0.6,4.6,1.1
	c3.7,1.3,6.8,3.9,8.8,7.4L239.1,55.2z"/>
<path class="st0" d="M247.1,60.4c-0.3-4.5-4.5-7.7-8.1-9.1c-1-0.4-2.1-0.7-3.2-1c-1.6-0.4-3.2-1-4.7-1.7c-4.8-2.3-8.1-7.1-10.7-10.9
	l0.8-0.6c2.7,3.9,5.8,8.3,10.4,10.5c1.5,0.7,3,1.2,4.6,1.6c1.1,0.3,2.2,0.6,3.2,1c3.9,1.5,8.4,5,8.7,10L247.1,60.4z"/>
<path class="st0" d="M255.7,65.1c-5.7-2.8-11.3-5.8-16.9-8.8l0.5-0.9c5.6,3,11.2,6,16.9,8.8L255.7,65.1z"/>
<path class="st0" d="M262,69.1c-3.7-4-7.8-7.7-12.1-11l0.6-0.8c4.4,3.3,8.5,7,12.2,11.1L262,69.1z"/>
<path class="st0" d="M278.3,95.9c-1.2-7.9-2.5-16.8-7.3-23.8c-1.1-1.6-2.3-3.1-3.5-4.5c-0.6-0.7-1.1-1.3-1.7-2
	c-3.8-4.8-6.9-10.1-9.2-15.8l0.9-0.4c2.3,5.6,5.3,10.8,9.1,15.5c0.5,0.7,1.1,1.3,1.7,2c1.3,1.5,2.5,3,3.6,4.6
	c4.9,7.2,6.2,16.2,7.4,24.2L278.3,95.9z"/>
<path class="st0" d="M301.1,159c-0.1-5.7-2-11.5-6.2-18.9c-1.1-1.9-2.2-3.8-3.4-5.6c-2.5-3.9-4.8-8-6.7-12.2
	c-2.4-5.4-3.7-11.3-4-17.2c-0.1-1.9,0-3.8,0-5.6c0.2-3.4,0-6.8-0.5-10.2l1-0.2c0.5,3.4,0.7,6.9,0.5,10.3c0,1.8,0,3.7,0,5.6
	c0.2,5.8,1.6,11.5,3.9,16.9c1.9,4.2,4.1,8.2,6.6,12c1.1,1.8,2.3,3.7,3.4,5.6c2.7,4.7,6.2,11.8,6.3,19.4L301.1,159z"/>
<path class="st0" d="M293,158.1c0-8-3.6-15.6-7.1-22.1c-0.7-1.3-1.5-2.6-2.2-3.9c-3.1-5.5-6.4-11.2-8.1-17.5l1-0.3
	c1.7,6.1,4.9,11.8,8,17.2c0.7,1.3,1.5,2.6,2.2,3.9c3.6,6.5,7.2,14.3,7.2,22.6L293,158.1z"/>
<path class="st0" d="M288.5,179.3l-1-0.1c0.3-4,0-8-1-11.9c-1.2-4.6-2.8-9-4.8-13.3l-12.9-30l0.9-0.4l12.9,30
	c2,4.3,3.6,8.9,4.9,13.5C288.5,171.1,288.8,175.2,288.5,179.3z"/>
<path class="st0" d="M214.7,74.3l-0.6-0.8c3-2.1,6.3-4.2,9.8-3.5l-0.2,1C220.6,70.3,217.5,72.3,214.7,74.3z"/>
<path class="st0" d="M229.4,73.4l-3.6-0.6l1.3-0.3l0.1-0.5l1.3,0.2c1.1-0.2,2.2-0.3,3.3-0.2l-0.1,1c-0.7-0.1-1.5-0.1-2.2,0
	L229.4,73.4z"/>
<path class="st0" d="M190.3,79.3c-0.5,0-0.9-0.2-1.1-0.6c0,0,0,0.1,0,0.2l-1,0.2c-0.1-0.4,0-0.8,0.2-1.2c0.1-0.1,0.2-0.3,0.4-0.4
	c0-0.3,0.2-0.7,0.4-0.9l0.2-0.2l2.1,0.9v0.4c0,0.4-0.2,0.7-0.5,1v0.3l-0.3,0.1C190.6,79.3,190.4,79.4,190.3,79.3z"/>
<path class="st0" d="M193,77.6c-1.5-0.8-3.2-1-4.8-0.5l-0.3-1c1.9-0.6,3.9-0.4,5.6,0.6L193,77.6z"/>
<path class="st0" d="M195.1,78.7c-0.3-0.4-0.8-0.6-1.3-0.7l0.2-1c0.7,0.1,1.3,0.5,1.8,1L195.1,78.7z"/>
<path class="st0" d="M248.9,111.2l-0.9-0.4c2.4-4.7,3.3-10.7,2.6-18.1c-0.3-3-0.7-6-1.2-8.9c-0.5-3.2-1-6.5-1.2-9.8l1-0.1
	c0.2,3.2,0.7,6.5,1.2,9.7c0.4,2.9,0.9,6,1.2,9C252.3,100.2,251.4,106.3,248.9,111.2z"/>
<path class="st0" d="M258.1,110c-3.3-3.1-5.5-7.2-6-11.7l1-0.1c0.5,4.3,2.5,8.2,5.6,11.1L258.1,110z"/>
<path class="st0" d="M271.2,117c-9-3.7-15.7-11.4-18.1-20.9l1-0.2c2.3,9.1,8.8,16.6,17.5,20.2L271.2,117z"/>
<path class="st0" d="M248.7,72.4c-3-4.7-6.6-9-10.6-12.8l0.7-0.7c4.1,3.9,7.7,8.3,10.7,13L248.7,72.4z"/>
<path class="st0" d="M249.7,74.5c-2.1-6.1-4.9-12-8.3-17.5l0.9-0.5c3.4,5.6,6.3,11.5,8.4,17.7L249.7,74.5z"/>
<path class="st0" d="M267.5,108.8l-1-0.1c1-8.4-0.9-17-5.4-24.2L262,84C266.6,91.4,268.5,100.2,267.5,108.8z"/>
<path class="st0" d="M268.7,140.5c-0.5-2.2-1.4-4.3-2.5-6.3c-1.2-2.1-2-4.3-2.6-6.6c-0.9-4.5,0.7-9,2.2-13.3l0.4-1.3
	c1.4-4.2,2.8-9.6,0.6-13.9l0.9-0.4c2.3,4.7,0.9,10.3-0.6,14.7l-0.4,1.3c-1.5,4.2-3,8.5-2.2,12.8c0.5,2.2,1.4,4.4,2.5,6.4
	c1.2,2.1,2,4.3,2.6,6.6L268.7,140.5z"/>
<path class="st0" d="M184.7,27.4c-0.4-1.6,0.2-3.3,1.9-5.3c1.4-1.7,3.2-3.1,5.2-4.1c2.1-1,4.6-0.9,6.6,0.3l-0.5,0.9
	c-1.8-1-3.9-1.1-5.7-0.2c-1.9,0.9-3.5,2.2-4.8,3.8c-1.5,1.7-2.1,3.2-1.7,4.4L184.7,27.4z"/>
<path class="st0" d="M209.3,32.1c-4.2-0.5-7.1-4.2-6.7-8.4c0.1-0.9,0.4-1.8,0.8-2.5l0.9,0.5c-1.6,3.2-0.3,7.2,2.9,8.8
	c0.7,0.4,1.5,0.6,2.2,0.7L209.3,32.1z"/>
<path class="st0" d="M218,32.7c-1.3-2.5-3.6-4.4-6.3-5.2c-2.2-0.6-4.5-1-6.8-1.2l-1.9-0.2l0.1-1l1.9,0.2c2.3,0.2,4.7,0.6,6.9,1.3
	c3,0.8,5.5,2.9,6.9,5.7L218,32.7z"/>
<path class="st0" d="M191.7,27.3l-1-0.3c0.6-1.8,1.9-3.3,3.7-4c0.7-0.3,1.4-0.4,2.1-0.2c0.9,0.3,1.4,1.1,1.2,2
	c-0.1,0.5-0.6,0.9-1.1,1c-0.4,0.1-0.9-0.1-1.2-0.4l0.8-0.6c0,0.1,0.2,0,0.2,0c0.1,0,0.3-0.1,0.3-0.2c0.1-0.3-0.2-0.7-0.6-0.8
	c-0.5-0.1-1-0.1-1.4,0.2C193.3,24.6,192.1,25.8,191.7,27.3z"/>
<path class="st0" d="M193.5,29.1c-0.2,0-0.4-0.1-0.5-0.2c-0.2-0.4-0.1-0.9,0.2-1.1c1.3-1.2,3.2-1.7,4.9-1.3l0.4,0.1v0.4
	c0,0.8-0.7,1.4-1.4,1.3c-0.2,0-0.4-0.1-0.6-0.2l0.5-0.8c-1,0-2.1,0.3-2.9,1c0.1,0.3-0.1,0.6-0.4,0.8C193.7,29,193.6,29.1,193.5,29.1
	z"/>
<path class="st0" d="M202,19.6c-0.6-0.1-1.2-0.5-1.5-1c-0.2-0.2-0.4-0.3-0.7-0.3l-1-0.2c0-0.4,0.3-0.7,0.6-0.8
	c0.6-0.1,1.2,0.1,1.7,0.5c0.3,0.3,0.7,0.8,0.9,0.7l0.4,0.9C202.3,19.5,202.2,19.6,202,19.6z"/>
<path class="st0" d="M183,137.5l-1-0.3c2.6-8.4,1.3-17.7-0.3-25.6c-0.3-1.6-0.7-3.3-1-4.9c-1.5-6.8-3-13.9-2.9-20.9h1
	c-0.1,7,1.4,14,2.9,20.7c0.4,1.7,0.7,3.3,1.1,4.9C184.4,119.5,185.7,128.9,183,137.5z"/>
<path class="st0" d="M197.3,154.7c-0.5-8.6-1-18.2-5.5-26.2c-0.9-1.6-2-3.2-3-4.7c-0.8-1.2-1.7-2.4-2.4-3.6
	c-3.4-5.6-5.4-11.9-5.8-18.5h1c0.3,6.4,2.3,12.6,5.6,18c0.8,1.2,1.6,2.4,2.4,3.6c1.1,1.5,2.2,3.1,3.1,4.8c4.6,8.2,5.2,18,5.6,26.7
	L197.3,154.7z"/>
</svg>
